<svg width="44" height="49" viewBox="0 0 44 49" fill="none" xmlns="http://www.w3.org/2000/svg">
<path d="M21.9279 5.4517C22.226 5.38396 22.4265 5.40022 22.4265 6.04236C22.4265 6.68451 22.2422 6.77393 21.89 6.79289C21.5378 6.81186 21.4294 6.55446 21.4294 6.05862C21.3969 5.43273 21.6218 5.38125 21.9279 5.4517Z" fill="#95A5A5"/>
<path d="M21.8708 14.6096H6.96867C6.30214 14.6096 6.27234 14.5798 6.26963 13.897C6.26963 13.561 6.26963 13.2223 6.26963 12.8864C6.26148 12.708 6.29124 12.5299 6.35696 12.3639C6.42268 12.1979 6.52286 12.0478 6.65089 11.9233C6.77892 11.7989 6.93188 11.703 7.09968 11.642C7.26749 11.581 7.44632 11.5563 7.62437 11.5695C8.79487 11.556 9.96807 11.5695 11.1467 11.5695H35.9249C36.1635 11.5681 36.4015 11.5926 36.6348 11.6427C36.8975 11.6947 37.1344 11.8353 37.306 12.0409C37.4776 12.2465 37.5735 12.5048 37.5777 12.7726C37.6125 13.2369 37.6188 13.7029 37.5967 14.1679C37.5967 14.5554 37.3447 14.6177 37.0114 14.6177C33.3645 14.6177 29.7166 14.6177 26.0678 14.6177H21.8708V14.6096Z" fill="url(#paint0_linear_1_88)"/>
<path d="M36.6919 20.6112C36.6919 19.2944 36.6919 18.1077 36.6919 16.9209C36.6919 16.5551 36.9114 16.6039 37.1308 16.6039H42.0892C42.5064 16.6039 42.9237 16.6039 43.341 16.6039C43.3966 16.5947 43.4536 16.5982 43.5076 16.6143C43.5616 16.6304 43.6113 16.6585 43.6528 16.6967C43.6943 16.7348 43.7266 16.7819 43.7472 16.8344C43.7678 16.8868 43.7762 16.9433 43.7718 16.9995V17.0483C43.8693 18.1077 43.7907 18.1998 42.7178 18.2431C40.683 18.3244 38.8324 18.9124 37.2528 20.2427C37.0721 20.3749 36.8849 20.4979 36.6919 20.6112ZM36.9628 19.8688C37.5746 19.4646 38.2077 19.0938 38.8595 18.7579C39.5003 18.4732 40.166 18.2482 40.8482 18.086C41.5121 17.9234 42.203 17.8584 42.8749 17.75C42.4648 17.6564 42.0481 17.5939 41.6286 17.5631C40.1204 17.4684 38.6077 17.6521 37.1661 18.105C37.116 18.1322 37.0731 18.171 37.0411 18.2181C37.009 18.2652 36.9887 18.3193 36.9818 18.3759C36.9601 18.8392 36.971 19.3161 36.971 19.8688H36.9628Z" fill="#95A5A5"/>
<path d="M6.57333 20.2396C4.9937 18.9093 3.14583 18.3213 1.1083 18.24C0.0245068 18.1967 -0.0432303 18.1046 0.0516016 17.0452C0.0516016 17.0289 0.0516016 17.0126 0.0516016 16.9964C0.0470448 16.9399 0.0554707 16.8832 0.076234 16.8305C0.0969974 16.7778 0.129547 16.7305 0.171391 16.6923C0.213234 16.6541 0.263262 16.626 0.317641 16.6102C0.37202 16.5943 0.429309 16.5911 0.485119 16.6008C0.90238 16.6008 1.31964 16.6008 1.7369 16.6008H6.69526C6.91743 16.6008 7.14232 16.552 7.1369 16.9178C7.12064 18.1046 7.1369 19.2913 7.1369 20.6081C6.94267 20.4953 6.75454 20.3723 6.57333 20.2396ZM6.84428 18.3593C6.83851 18.3023 6.81864 18.2477 6.78647 18.2004C6.7543 18.1531 6.71085 18.1146 6.66003 18.0883C5.21568 17.64 3.70105 17.4618 2.19209 17.5627C1.7725 17.5933 1.35584 17.6558 0.945731 17.7496C1.62039 17.858 2.30047 17.923 2.96972 18.0856C3.65205 18.2474 4.31784 18.4723 4.95848 18.7575C5.60991 19.094 6.24301 19.4648 6.85511 19.8684C6.85241 19.3157 6.86053 18.8388 6.84157 18.3593H6.84428Z" fill="#95A5A5"/>
<path d="M36.4426 35.6895V15.596C36.4426 15.0405 36.4426 15.0405 35.8872 15.0405H8.04451C7.37256 15.0405 7.37256 15.0405 7.37256 15.6989C7.37256 22.3643 7.37256 29.0296 7.37256 35.6949C7.37256 35.7708 7.37256 35.8385 7.37256 35.8954C7.37256 35.9523 7.37256 35.9361 7.37256 35.9578C7.37256 38.781 13.8753 41.0706 21.9116 41.0706C29.948 41.0706 36.448 38.781 36.448 35.9578C36.448 35.9171 36.448 35.8792 36.448 35.8413L36.4426 35.6895Z" fill="url(#paint1_linear_1_88)"/>
<path d="M22.1097 19.1261H22.107C20.88 19.1261 19.8853 20.1208 19.8853 21.3479V33.126C19.8853 34.3531 20.88 35.3478 22.107 35.3478H22.1097C23.3368 35.3478 24.3315 34.3531 24.3315 33.126V21.3479C24.3315 20.1208 23.3368 19.1261 22.1097 19.1261Z" fill="#CECECE"/>
<path d="M23.0553 33.1588C23.0539 33.3976 22.9584 33.6263 22.7895 33.7952C22.6206 33.9641 22.3919 34.0596 22.153 34.061C21.9179 34.0561 21.6939 33.9602 21.5281 33.7934C21.3624 33.6266 21.2678 33.402 21.2643 33.1669C21.2611 32.9999 21.3045 32.8354 21.3897 32.6918C21.4749 32.5482 21.5985 32.4312 21.7466 32.354L21.9363 32.2538V30.9993H22.3942V32.2538L22.5839 32.354C22.7287 32.432 22.8493 32.5484 22.9324 32.6903C23.0156 32.8322 23.0581 32.9943 23.0553 33.1588Z" fill="#AEAEAE"/>
<path d="M22.3752 21.8494H21.9146V31.0075H22.3752V21.8494Z" fill="#989898"/>
<path d="M22.3752 24.4073H21.9146V31.1567H22.3752V24.4073Z" fill="#AEAEAE"/>
<path d="M23.3256 30.1155H22.7241C22.709 30.118 22.6935 30.1171 22.6788 30.113C22.6641 30.1089 22.6504 30.1016 22.6387 30.0917C22.6271 30.0818 22.6177 30.0694 22.6113 30.0555C22.6049 30.0416 22.6016 30.0265 22.6016 30.0112C22.6016 29.9959 22.6049 29.9808 22.6113 29.9669C22.6177 29.953 22.6271 29.9407 22.6387 29.9308C22.6504 29.9208 22.6641 29.9136 22.6788 29.9094C22.6935 29.9053 22.709 29.9045 22.7241 29.9069H23.3256C23.3407 29.9045 23.3562 29.9053 23.3709 29.9094C23.3856 29.9136 23.3993 29.9208 23.411 29.9308C23.4226 29.9407 23.432 29.953 23.4384 29.9669C23.4448 29.9808 23.4481 29.9959 23.4481 30.0112C23.4481 30.0265 23.4448 30.0416 23.4384 30.0555C23.432 30.0694 23.4226 30.0818 23.411 30.0917C23.3993 30.1016 23.3856 30.1089 23.3709 30.113C23.3562 30.1171 23.3407 30.118 23.3256 30.1155Z" fill="#A3A3A3"/>
<path d="M23.0011 29.2625H22.7302C22.7024 29.2618 22.6759 29.2505 22.6562 29.2308C22.6366 29.2111 22.6252 29.1846 22.6245 29.1568C22.6245 29.1288 22.6356 29.1019 22.6555 29.0821C22.6753 29.0623 22.7022 29.0512 22.7302 29.0512H23.0011C23.0151 29.0508 23.029 29.0533 23.042 29.0584C23.055 29.0636 23.0668 29.0714 23.0767 29.0813C23.0866 29.0912 23.0943 29.103 23.0995 29.1159C23.1047 29.1289 23.1072 29.1428 23.1068 29.1568C23.1068 29.1848 23.0957 29.2117 23.0758 29.2315C23.056 29.2514 23.0292 29.2625 23.0011 29.2625Z" fill="#A3A3A3"/>
<path d="M23.1007 28.4114H22.7241C22.709 28.4139 22.6935 28.413 22.6788 28.4089C22.6641 28.4048 22.6504 28.3975 22.6387 28.3876C22.6271 28.3777 22.6177 28.3653 22.6113 28.3515C22.6049 28.3376 22.6016 28.3224 22.6016 28.3071C22.6016 28.2918 22.6049 28.2767 22.6113 28.2628C22.6177 28.2489 22.6271 28.2366 22.6387 28.2267C22.6504 28.2167 22.6641 28.2095 22.6788 28.2054C22.6935 28.2012 22.709 28.2004 22.7241 28.2028H23.1007C23.1255 28.2068 23.148 28.2195 23.1643 28.2386C23.1806 28.2577 23.1895 28.282 23.1895 28.3071C23.1895 28.3322 23.1806 28.3565 23.1643 28.3756C23.148 28.3947 23.1255 28.4074 23.1007 28.4114Z" fill="#A3A3A3"/>
<path d="M23.1007 31.8199H22.7241C22.709 31.8224 22.6935 31.8215 22.6788 31.8174C22.6641 31.8133 22.6504 31.806 22.6387 31.7961C22.6271 31.7862 22.6177 31.7738 22.6113 31.7599C22.6049 31.746 22.6016 31.7309 22.6016 31.7156C22.6016 31.7003 22.6049 31.6852 22.6113 31.6713C22.6177 31.6574 22.6271 31.6451 22.6387 31.6351C22.6504 31.6252 22.6641 31.618 22.6788 31.6138C22.6935 31.6097 22.709 31.6089 22.7241 31.6113H23.1007C23.1255 31.6153 23.148 31.628 23.1643 31.6471C23.1806 31.6662 23.1895 31.6905 23.1895 31.7156C23.1895 31.7407 23.1806 31.765 23.1643 31.7841C23.148 31.8032 23.1255 31.8159 23.1007 31.8199Z" fill="#A3A3A3"/>
<path d="M23.0011 30.9695H22.7302C22.7022 30.9695 22.6753 30.9584 22.6555 30.9386C22.6356 30.9188 22.6245 30.8919 22.6245 30.8639C22.6245 30.8358 22.6356 30.809 22.6555 30.7891C22.6753 30.7693 22.7022 30.7582 22.7302 30.7582H23.0011C23.0292 30.7582 23.056 30.7693 23.0758 30.7891C23.0957 30.809 23.1068 30.8358 23.1068 30.8639C23.1068 30.8919 23.0957 30.9188 23.0758 30.9386C23.056 30.9584 23.0292 30.9695 23.0011 30.9695Z" fill="#A3A3A3"/>
<path d="M23.3263 25.8564H22.7248C22.6968 25.8564 22.6699 25.8452 22.6501 25.8254C22.6303 25.8056 22.6191 25.7787 22.6191 25.7507C22.6191 25.7227 22.6303 25.6958 22.6501 25.676C22.6699 25.6562 22.6968 25.645 22.7248 25.645H23.3263C23.3543 25.645 23.3812 25.6562 23.401 25.676C23.4209 25.6958 23.432 25.7227 23.432 25.7507C23.432 25.7787 23.4209 25.8056 23.401 25.8254C23.3812 25.8452 23.3543 25.8564 23.3263 25.8564Z" fill="#A3A3A3"/>
<path d="M23.3257 23.3015H22.7133C22.6855 23.3008 22.659 23.2894 22.6394 23.2698C22.6197 23.2501 22.6084 23.2236 22.6077 23.1958C22.6077 23.1678 22.6188 23.1409 22.6386 23.1211C22.6584 23.1013 22.6853 23.0901 22.7133 23.0901H23.3257C23.3397 23.0898 23.3536 23.0922 23.3666 23.0974C23.3795 23.1026 23.3913 23.1104 23.4012 23.1203C23.4111 23.1301 23.4189 23.1419 23.4241 23.1549C23.4292 23.1679 23.4317 23.1818 23.4313 23.1958C23.4313 23.2238 23.4202 23.2507 23.4004 23.2705C23.3806 23.2903 23.3537 23.3015 23.3257 23.3015Z" fill="#ADADAD"/>
<path d="M23.0004 25.003H22.7295C22.7144 25.0054 22.6989 25.0046 22.6842 25.0004C22.6694 24.9963 22.6558 24.9891 22.6441 24.9791C22.6325 24.9692 22.6231 24.9569 22.6167 24.943C22.6103 24.9291 22.6069 24.914 22.6069 24.8987C22.6069 24.8834 22.6103 24.8682 22.6167 24.8544C22.6231 24.8405 22.6325 24.8281 22.6441 24.8182C22.6558 24.8083 22.6694 24.801 22.6842 24.7969C22.6989 24.7928 22.7144 24.7919 22.7295 24.7944H23.0004C23.0155 24.7919 23.031 24.7928 23.0457 24.7969C23.0605 24.801 23.0741 24.8083 23.0858 24.8182C23.0974 24.8281 23.1068 24.8405 23.1132 24.8544C23.1196 24.8682 23.123 24.8834 23.123 24.8987C23.123 24.914 23.1196 24.9291 23.1132 24.943C23.1068 24.9569 23.0974 24.9692 23.0858 24.9791C23.0741 24.9891 23.0605 24.9963 23.0457 25.0004C23.031 25.0046 23.0155 25.0054 23.0004 25.003Z" fill="#A3A3A3"/>
<path d="M23.1014 24.1526H22.7248C22.6968 24.1526 22.6699 24.1415 22.6501 24.1216C22.6303 24.1018 22.6191 24.0749 22.6191 24.0469C22.6191 24.0189 22.6303 23.992 22.6501 23.9722C22.6699 23.9524 22.6968 23.9413 22.7248 23.9413H23.1014C23.1295 23.9413 23.1563 23.9524 23.1761 23.9722C23.196 23.992 23.2071 24.0189 23.2071 24.0469C23.2071 24.0749 23.196 24.1018 23.1761 24.1216C23.1563 24.1415 23.1295 24.1526 23.1014 24.1526Z" fill="#ADADAD"/>
<path d="M23.1007 22.4317H22.7241C22.709 22.4341 22.6935 22.4332 22.6788 22.4291C22.6641 22.425 22.6504 22.4177 22.6387 22.4078C22.6271 22.3979 22.6177 22.3855 22.6113 22.3717C22.6049 22.3578 22.6016 22.3426 22.6016 22.3273C22.6016 22.312 22.6049 22.2969 22.6113 22.283C22.6177 22.2691 22.6271 22.2568 22.6387 22.2469C22.6504 22.237 22.6641 22.2297 22.6788 22.2256C22.6935 22.2214 22.709 22.2206 22.7241 22.223H23.1007C23.1255 22.227 23.148 22.2397 23.1643 22.2588C23.1806 22.278 23.1895 22.3022 23.1895 22.3273C23.1895 22.3524 23.1806 22.3767 23.1643 22.3958C23.148 22.4149 23.1255 22.4276 23.1007 22.4317Z" fill="#ADADAD"/>
<path d="M23.1014 27.5611H22.7248C22.6968 27.5611 22.6699 27.5499 22.6501 27.5301C22.6303 27.5103 22.6191 27.4834 22.6191 27.4554C22.6198 27.4276 22.6312 27.4011 22.6509 27.3814C22.6705 27.3618 22.697 27.3504 22.7248 27.3497H23.1014C23.129 27.3504 23.1552 27.3619 23.1744 27.3816C23.1936 27.4013 23.2044 27.4278 23.2044 27.4554C23.2048 27.4691 23.2024 27.4828 23.1973 27.4956C23.1923 27.5084 23.1848 27.5201 23.1752 27.5299C23.1656 27.5398 23.1541 27.5476 23.1415 27.553C23.1288 27.5583 23.1152 27.5611 23.1014 27.5611Z" fill="#A3A3A3"/>
<path d="M23.0004 26.7071H22.7295C22.7144 26.7095 22.6989 26.7086 22.6842 26.7045C22.6694 26.7004 22.6558 26.6931 22.6441 26.6832C22.6325 26.6733 22.6231 26.661 22.6167 26.6471C22.6103 26.6332 22.6069 26.6181 22.6069 26.6028C22.6069 26.5875 22.6103 26.5723 22.6167 26.5584C22.6231 26.5445 22.6325 26.5322 22.6441 26.5223C22.6558 26.5124 22.6694 26.5051 22.6842 26.501C22.6989 26.4969 22.7144 26.496 22.7295 26.4984H23.0004C23.0155 26.496 23.031 26.4969 23.0457 26.501C23.0605 26.5051 23.0741 26.5124 23.0858 26.5223C23.0974 26.5322 23.1068 26.5445 23.1132 26.5584C23.1196 26.5723 23.123 26.5875 23.123 26.6028C23.123 26.6181 23.1196 26.6332 23.1132 26.6471C23.1068 26.661 23.0974 26.6733 23.0858 26.6832C23.0741 26.6931 23.0605 26.7004 23.0457 26.7045C23.031 26.7086 23.0155 26.7095 23.0004 26.7071Z" fill="#A3A3A3"/>
<path d="M21.5722 23.3015H20.9626C20.9348 23.3008 20.9083 23.2894 20.8886 23.2698C20.869 23.2501 20.8576 23.2236 20.8569 23.1958C20.8569 23.1678 20.8681 23.1409 20.8879 23.1211C20.9077 23.1013 20.9346 23.0901 20.9626 23.0901H21.5722C21.5862 23.0898 21.6001 23.0922 21.6131 23.0974C21.6261 23.1026 21.6379 23.1104 21.6478 23.1203C21.6577 23.1301 21.6654 23.1419 21.6706 23.1549C21.6758 23.1679 21.6783 23.1818 21.6779 23.1958C21.6779 23.2238 21.6668 23.2507 21.647 23.2705C21.6271 23.2903 21.6003 23.3015 21.5722 23.3015Z" fill="#ADADAD"/>
<path d="M21.5731 22.4317H21.1992C21.1841 22.4341 21.1686 22.4332 21.1539 22.4291C21.1392 22.425 21.1255 22.4177 21.1138 22.4078C21.1022 22.3979 21.0928 22.3855 21.0864 22.3717C21.08 22.3578 21.0767 22.3426 21.0767 22.3273C21.0767 22.312 21.08 22.2969 21.0864 22.283C21.0928 22.2691 21.1022 22.2568 21.1138 22.2469C21.1255 22.237 21.1392 22.2297 21.1539 22.2256C21.1686 22.2214 21.1841 22.2206 21.1992 22.223H21.5731C21.5882 22.2206 21.6037 22.2214 21.6184 22.2256C21.6331 22.2297 21.6468 22.237 21.6585 22.2469C21.6701 22.2568 21.6795 22.2691 21.6859 22.283C21.6923 22.2969 21.6956 22.312 21.6956 22.3273C21.6956 22.3426 21.6923 22.3578 21.6859 22.3717C21.6795 22.3855 21.6701 22.3979 21.6585 22.4078C21.6468 22.4177 21.6331 22.425 21.6184 22.4291C21.6037 22.4332 21.5882 22.4341 21.5731 22.4317Z" fill="#ADADAD"/>
<path d="M20.8569 30.0099C20.8576 29.9823 20.8691 29.9561 20.8888 29.9369C20.9086 29.9177 20.935 29.9069 20.9626 29.9069H21.5722C21.5873 29.9045 21.6028 29.9053 21.6175 29.9094C21.6323 29.9136 21.6459 29.9208 21.6576 29.9308C21.6693 29.9407 21.6786 29.953 21.685 29.9669C21.6915 29.9808 21.6948 29.9959 21.6948 30.0112C21.6948 30.0265 21.6915 30.0416 21.685 30.0555C21.6786 30.0694 21.6693 30.0818 21.6576 30.0917C21.6459 30.1016 21.6323 30.1089 21.6175 30.113C21.6028 30.1171 21.5873 30.118 21.5722 30.1155H20.9626C20.9346 30.1155 20.9077 30.1044 20.8879 30.0846C20.8681 30.0648 20.8569 30.0379 20.8569 30.0099Z" fill="#A3A3A3"/>
<path d="M21.191 29.1592C21.1906 29.1452 21.1931 29.1313 21.1982 29.1183C21.2034 29.1054 21.2112 29.0936 21.2211 29.0837C21.231 29.0738 21.2428 29.066 21.2557 29.0608C21.2687 29.0557 21.2826 29.0532 21.2966 29.0535H21.5676C21.5816 29.0532 21.5955 29.0557 21.6084 29.0608C21.6214 29.066 21.6332 29.0738 21.6431 29.0837C21.653 29.0936 21.6608 29.1054 21.666 29.1183C21.6711 29.1313 21.6736 29.1452 21.6732 29.1592C21.6732 29.1872 21.6621 29.2141 21.6423 29.2339C21.6225 29.2538 21.5956 29.2649 21.5676 29.2649H21.2966C21.2686 29.2649 21.2417 29.2538 21.2219 29.2339C21.2021 29.2141 21.191 29.1872 21.191 29.1592Z" fill="#A3A3A3"/>
<path d="M21.0931 28.3058C21.093 28.292 21.0958 28.2784 21.1011 28.2657C21.1065 28.2531 21.1143 28.2416 21.1242 28.232C21.134 28.2224 21.1457 28.2149 21.1585 28.2099C21.1713 28.2049 21.185 28.2025 21.1987 28.2028H21.5726C21.5877 28.2004 21.6032 28.2012 21.6179 28.2054C21.6327 28.2095 21.6463 28.2167 21.658 28.2267C21.6696 28.2366 21.679 28.2489 21.6854 28.2628C21.6918 28.2767 21.6952 28.2918 21.6952 28.3071C21.6952 28.3224 21.6918 28.3376 21.6854 28.3515C21.679 28.3653 21.6696 28.3777 21.658 28.3876C21.6463 28.3975 21.6327 28.4048 21.6179 28.4089C21.6032 28.413 21.5877 28.4139 21.5726 28.4114H21.1987C21.1847 28.4118 21.1708 28.4093 21.1578 28.4042C21.1449 28.399 21.1331 28.3912 21.1232 28.3813C21.1133 28.3714 21.1055 28.3596 21.1003 28.3467C21.0952 28.3337 21.0927 28.3198 21.0931 28.3058Z" fill="#A3A3A3"/>
<path d="M21.0931 31.717C21.0927 31.703 21.0952 31.6891 21.1003 31.6761C21.1055 31.6631 21.1133 31.6513 21.1232 31.6414C21.1331 31.6315 21.1449 31.6238 21.1578 31.6186C21.1708 31.6134 21.1847 31.6109 21.1987 31.6113H21.5726C21.5877 31.6089 21.6032 31.6097 21.6179 31.6138C21.6327 31.618 21.6463 31.6252 21.658 31.6351C21.6696 31.6451 21.679 31.6574 21.6854 31.6713C21.6918 31.6852 21.6952 31.7003 21.6952 31.7156C21.6952 31.7309 21.6918 31.746 21.6854 31.7599C21.679 31.7738 21.6696 31.7862 21.658 31.7961C21.6463 31.806 21.6327 31.8133 21.6179 31.8174C21.6032 31.8215 21.5877 31.8224 21.5726 31.8199H21.1987C21.185 31.8203 21.1713 31.8179 21.1585 31.8129C21.1457 31.8079 21.134 31.8003 21.1242 31.7907C21.1143 31.7811 21.1065 31.7697 21.1011 31.757C21.0958 31.7443 21.093 31.7307 21.0931 31.717Z" fill="#A3A3A3"/>
<path d="M21.1909 30.8639C21.1909 30.8358 21.2021 30.809 21.2219 30.7891C21.2417 30.7693 21.2686 30.7582 21.2966 30.7582H21.5675C21.5956 30.7582 21.6224 30.7693 21.6423 30.7891C21.6621 30.809 21.6732 30.8358 21.6732 30.8639C21.6732 30.8919 21.6621 30.9188 21.6423 30.9386C21.6224 30.9584 21.5956 30.9695 21.5675 30.9695H21.2966C21.2686 30.9695 21.2417 30.9584 21.2219 30.9386C21.2021 30.9188 21.1909 30.8919 21.1909 30.8639Z" fill="#A3A3A3"/>
<path d="M20.8569 25.74C20.8576 25.7122 20.869 25.6857 20.8886 25.666C20.9083 25.6463 20.9348 25.635 20.9626 25.6343H21.5722C21.6003 25.6343 21.6271 25.6454 21.647 25.6653C21.6668 25.6851 21.6779 25.712 21.6779 25.74C21.6779 25.768 21.6668 25.7949 21.647 25.8147C21.6271 25.8345 21.6003 25.8456 21.5722 25.8456H20.9626C20.9348 25.845 20.9083 25.8336 20.8886 25.8139C20.869 25.7943 20.8576 25.7678 20.8569 25.74Z" fill="#A3A3A3"/>
<path d="M21.191 24.9C21.1906 24.886 21.1931 24.8721 21.1982 24.8591C21.2034 24.8462 21.2112 24.8344 21.2211 24.8245C21.231 24.8146 21.2428 24.8068 21.2557 24.8016C21.2687 24.7965 21.2826 24.794 21.2966 24.7944H21.5676C21.5827 24.7919 21.5981 24.7928 21.6129 24.7969C21.6276 24.801 21.6413 24.8083 21.6529 24.8182C21.6646 24.8281 21.6739 24.8405 21.6804 24.8544C21.6868 24.8682 21.6901 24.8834 21.6901 24.8987C21.6901 24.914 21.6868 24.9291 21.6804 24.943C21.6739 24.9569 21.6646 24.9692 21.6529 24.9791C21.6413 24.9891 21.6276 24.9963 21.6129 25.0004C21.5981 25.0046 21.5827 25.0054 21.5676 25.003H21.2966C21.2829 25.0033 21.2692 25.001 21.2564 24.9959C21.2436 24.9909 21.2319 24.9834 21.2221 24.9738C21.2122 24.9642 21.2044 24.9527 21.199 24.9401C21.1937 24.9274 21.1909 24.9138 21.191 24.9Z" fill="#A3A3A3"/>
<path d="M21.093 24.0469C21.093 24.0189 21.1042 23.992 21.124 23.9722C21.1438 23.9524 21.1707 23.9413 21.1987 23.9413H21.5726C21.6006 23.9413 21.6275 23.9524 21.6473 23.9722C21.6671 23.992 21.6783 24.0189 21.6783 24.0469C21.6783 24.0749 21.6671 24.1018 21.6473 24.1216C21.6275 24.1415 21.6006 24.1526 21.5726 24.1526H21.1987C21.1707 24.1526 21.1438 24.1415 21.124 24.1216C21.1042 24.1018 21.093 24.0749 21.093 24.0469Z" fill="#ADADAD"/>
<path d="M21.0931 27.4554C21.0931 27.4274 21.1042 27.4005 21.124 27.3807C21.1438 27.3608 21.1707 27.3497 21.1987 27.3497H21.5726C21.6007 27.3497 21.6275 27.3608 21.6474 27.3807C21.6672 27.4005 21.6783 27.4274 21.6783 27.4554C21.6787 27.4694 21.6762 27.4833 21.671 27.4963C21.6658 27.5092 21.6581 27.521 21.6482 27.5309C21.6383 27.5408 21.6265 27.5486 21.6135 27.5538C21.6005 27.5589 21.5866 27.5614 21.5726 27.5611H21.1987C21.1847 27.5614 21.1708 27.5589 21.1578 27.5538C21.1449 27.5486 21.1331 27.5408 21.1232 27.5309C21.1133 27.521 21.1055 27.5092 21.1003 27.4963C21.0952 27.4833 21.0927 27.4694 21.0931 27.4554Z" fill="#A3A3A3"/>
<path d="M21.191 26.6041C21.1906 26.5901 21.1931 26.5762 21.1982 26.5632C21.2034 26.5502 21.2112 26.5384 21.2211 26.5286C21.231 26.5187 21.2428 26.5109 21.2557 26.5057C21.2687 26.5005 21.2826 26.4981 21.2966 26.4984H21.5676C21.5827 26.496 21.5981 26.4969 21.6129 26.501C21.6276 26.5051 21.6413 26.5124 21.6529 26.5223C21.6646 26.5322 21.6739 26.5445 21.6804 26.5584C21.6868 26.5723 21.6901 26.5875 21.6901 26.6028C21.6901 26.6181 21.6868 26.6332 21.6804 26.6471C21.6739 26.661 21.6646 26.6733 21.6529 26.6832C21.6413 26.6931 21.6276 26.7004 21.6129 26.7045C21.5981 26.7086 21.5827 26.7095 21.5676 26.7071H21.2966C21.2829 26.7074 21.2692 26.705 21.2564 26.7C21.2436 26.695 21.2319 26.6875 21.2221 26.6779C21.2122 26.6683 21.2044 26.6568 21.199 26.6441C21.1937 26.6315 21.1909 26.6179 21.191 26.6041Z" fill="#A3A3A3"/>
<path d="M21.9222 4.93683C23.1343 4.93683 24.1169 3.95424 24.1169 2.74215C24.1169 1.53006 23.1343 0.54747 21.9222 0.54747C20.7101 0.54747 19.7275 1.53006 19.7275 2.74215C19.7275 3.95424 20.7101 4.93683 21.9222 4.93683Z" fill="#E6E7E8"/>
<path d="M21.9219 5.484C21.3796 5.484 20.8495 5.32318 20.3986 5.02189C19.9476 4.72059 19.5962 4.29235 19.3887 3.79132C19.1811 3.29028 19.1268 2.73896 19.2326 2.20706C19.3384 1.67517 19.5996 1.18659 19.983 0.803114C20.3665 0.419639 20.8551 0.158489 21.387 0.052688C21.9189 -0.0531126 22.4702 0.00118806 22.9712 0.208723C23.4723 0.416259 23.9005 0.767708 24.2018 1.21863C24.5031 1.66955 24.6639 2.19968 24.6639 2.742C24.6639 3.46922 24.375 4.16666 23.8608 4.68088C23.3466 5.19511 22.6492 5.484 21.9219 5.484ZM21.9219 1.09734C21.5959 1.09681 21.277 1.19304 21.0057 1.37384C20.7344 1.55465 20.5228 1.81191 20.3978 2.11304C20.2728 2.41416 20.2399 2.74562 20.3034 3.06543C20.3669 3.38524 20.5238 3.67902 20.7544 3.90957C20.9849 4.14012 21.2787 4.29707 21.5985 4.36055C21.9183 4.42403 22.2498 4.39118 22.5509 4.26616C22.852 4.14114 23.1093 3.92957 23.2901 3.65825C23.4709 3.38692 23.5671 3.06805 23.5666 2.742C23.5659 2.30603 23.3924 1.88812 23.0841 1.57984C22.7758 1.27156 22.3579 1.09806 21.9219 1.09734Z" fill="#95A5A5"/>
<path d="M21.9223 3.29222C21.7785 3.29222 21.6407 3.23513 21.5391 3.13351C21.4375 3.03188 21.3804 2.89405 21.3804 2.75033V2.20843C21.3804 2.06471 21.4375 1.92688 21.5391 1.82525C21.6407 1.72363 21.7785 1.66653 21.9223 1.66653C22.066 1.66653 22.2038 1.72363 22.3054 1.82525C22.4071 1.92688 22.4642 2.06471 22.4642 2.20843V2.75033C22.4642 2.89405 22.4071 3.03188 22.3054 3.13351C22.2038 3.23513 22.066 3.29222 21.9223 3.29222Z" fill="#A5A5A5"/>
<path d="M35.5429 11.1088C32.5624 8.55371 27.5553 6.87654 21.8817 6.87654C16.208 6.87654 11.2063 8.54016 8.22314 11.1088H35.5429Z" fill="url(#paint2_linear_1_88)"/>
<path d="M30.4328 6.97377C30.1618 6.5683 29.754 6.27396 29.2838 6.14459C28.8136 6.01523 28.3125 6.0595 27.8723 6.2693L30.4328 6.97377Z" fill="url(#paint3_linear_1_88)"/>
<path d="M30.1136 7.65835L27.8059 7.02704L27.7194 7.34327L30.0271 7.97458L30.1136 7.65835Z" fill="url(#paint4_linear_1_88)"/>
<path d="M30.3885 7.06013L27.8142 6.3559L27.6841 6.83154L30.2583 7.53578L30.3885 7.06013Z" fill="url(#paint5_linear_1_88)"/>
<path d="M35.2156 44.4055C35.8442 44.2078 36.397 45.1669 36.1179 45.9093C35.7413 46.9091 34.6249 46.966 33.6468 47.2641C30.474 48.3153 19.3435 49.4994 9.60828 46.9064C8.96884 46.7357 8.34024 46.229 8.43237 45.5219C8.46955 45.3141 8.55004 45.1165 8.66861 44.9419C8.78718 44.7673 8.94117 44.6197 9.12057 44.5085C9.16906 44.4795 9.22346 44.4617 9.27975 44.4565C9.33603 44.4514 9.39275 44.459 9.44571 44.4787C16.214 46.435 26.0928 47.3101 35.2156 44.4055Z" fill="url(#paint6_linear_1_88)"/>
<path d="M22.6917 45.4519L22.036 44.1649L21.4291 45.6524C21.0308 45.5061 20.4482 45.498 20.3453 45.1105C20.0093 43.8831 21.4291 43.1813 21.952 42.0434C22.1956 42.1608 22.4195 42.3153 22.6158 42.5013C23.0663 42.9602 23.4056 43.5164 23.6075 44.127C23.7863 44.7285 23.5235 45.0319 22.6917 45.4519Z" fill="#E4E4E4"/>
<path d="M26.1813 41.7769C27.1567 42.2917 27.5658 42.9393 27.5604 43.8632C27.5604 44.4918 27.5062 45.1069 26.7476 45.3318C26.5629 44.9067 26.3426 44.4979 26.0892 44.1098C26.0025 44.4674 25.913 44.8224 25.7857 45.3345C25.4145 45.3589 24.6748 45.665 24.5068 45.1692C24.0083 43.7034 25.9212 43.1967 26.1813 41.7769Z" fill="#E4E4E4"/>
<path d="M17.831 41.7832C18.8253 42.7938 19.5108 43.8099 19.0692 45.2893L18.595 45.3516C18.3485 44.8964 18.0911 44.4195 17.7497 43.7936L17.5871 45.2568C16.9991 45.4735 16.5846 45.2568 16.3001 44.7555C16.0156 44.2542 16.2378 43.837 16.5494 43.4414C16.9504 42.9374 17.3405 42.4226 17.831 41.7832Z" fill="#E4E4E4"/>
<path d="M30.1271 43.8125C29.5852 44.4546 29.4307 45.3135 28.4553 45.2756C28.4553 45.2756 29.5066 42.6582 30.1244 41.5311C31.6688 42.8316 31.6796 43.8097 30.2219 44.8068L30.1271 43.8125Z" fill="#E9E9E9"/>
<path d="M15.2463 45.3049L13.8916 43.5356L14.065 44.8687C13.1464 44.5544 12.8728 44.2753 13.0733 42.8718C13.1546 42.3109 13.6775 41.9289 13.9837 41.4575C14.4764 41.9581 14.8468 42.5658 15.0658 43.2333C15.2848 43.9007 15.3466 44.6097 15.2463 45.3049Z" fill="#E7E7E7"/>
<path d="M33.3508 40.8775C34.5376 42.2891 34.5295 42.8961 33.3373 44.0801C33.2045 43.9907 33.1856 43.0397 33.1097 42.9963C32.7277 43.3106 32.2454 44.4703 31.7549 44.8686C31.6113 43.9175 32.1207 43.4434 32.4269 42.8771C32.7331 42.3108 33.0121 41.6226 33.3508 40.8775Z" fill="#E7E7E7"/>
<path d="M35.597 40.3715C36.277 41.1003 36.3936 41.8427 35.8462 42.539C35.3774 43.0684 34.8742 43.5662 34.3398 44.0293C34.3127 43.295 34.776 42.7639 35.0334 42.1055C35.2474 41.5555 35.4127 40.9703 35.597 40.3715Z" fill="#E1E1E1"/>
<path d="M8.72692 40.4177C8.6917 41.7236 8.94368 42.2818 9.64543 43.52C8.04413 43.054 7.58894 41.6451 8.72692 40.4177Z" fill="#E2E2E2"/>
<path d="M10.9789 41.0515C10.0496 41.7262 9.92493 42.5824 10.139 43.6228L11.0331 44.3951C10.9226 44.1748 10.8674 43.9309 10.8721 43.6845C10.8768 43.4381 10.9414 43.1966 11.0602 42.9807C11.3555 43.211 11.873 44.3354 12.1061 44.5278C11.7999 43.2923 11.64 42.0839 10.9789 41.0515Z" fill="#E6E6E6"/>
<defs>
<linearGradient id="paint0_linear_1_88" x1="6.49722" y1="15.5985" x2="37.2526" y2="10.7269" gradientUnits="userSpaceOnUse">
<stop stop-color="#95A5A5"/>
<stop offset="0.52" stop-color="#E6E7E8"/>
<stop offset="1" stop-color="#95A5A5"/>
</linearGradient>
<linearGradient id="paint1_linear_1_88" x1="6.35379" y1="29.6447" x2="37.9274" y2="24.643" gradientUnits="userSpaceOnUse">
<stop stop-color="#D3D3D3"/>
<stop offset="0.52" stop-color="#F7F7F7"/>
<stop offset="1" stop-color="#D3D3D3"/>
</linearGradient>
<linearGradient id="paint2_linear_1_88" x1="8.36946" y1="12.0273" x2="35.0226" y2="7.8059" gradientUnits="userSpaceOnUse">
<stop stop-color="#D6D6D6"/>
<stop offset="0.52" stop-color="#EDEDED"/>
<stop offset="1" stop-color="#D6D6D6"/>
</linearGradient>
<linearGradient id="paint3_linear_1_88" x1="27.7701" y1="6.3355" x2="30.278" y2="6.19993" gradientUnits="userSpaceOnUse">
<stop stop-color="#464849"/>
<stop offset="0.52" stop-color="#A7B3B4"/>
<stop offset="1" stop-color="#494C4C"/>
</linearGradient>
<linearGradient id="paint4_linear_1_88" x1="27.7035" y1="7.57347" x2="29.886" y2="7.02137" gradientUnits="userSpaceOnUse">
<stop stop-color="#DFDFDF"/>
<stop offset="0.52" stop-color="#DDDDDD"/>
<stop offset="1" stop-color="#DFDFDF"/>
</linearGradient>
<linearGradient id="paint5_linear_1_88" x1="27.6404" y1="6.67948" x2="30.2654" y2="6.32703" gradientUnits="userSpaceOnUse">
<stop offset="0.01" stop-color="#DDDDDD"/>
<stop offset="0.52" stop-color="#E2E2E2"/>
<stop offset="1" stop-color="#DCDCDC"/>
</linearGradient>
<linearGradient id="paint6_linear_1_88" x1="8.42424" y1="46.4295" x2="36.1937" y2="46.4295" gradientUnits="userSpaceOnUse">
<stop stop-color="#D8D8D8"/>
<stop offset="1" stop-color="#D9D9D9"/>
</linearGradient>
</defs>
</svg>
