<svg width="261" height="78" viewBox="0 0 261 78" fill="none" xmlns="http://www.w3.org/2000/svg">
<path d="M90.1381 21.5161C90.0029 24.5803 89.496 27.0137 88.6173 28.8162H95.647V13.5401H90.4423L90.1381 21.5161ZM83.5139 28.8162C84.5954 27.5319 85.2263 25.076 85.4066 21.4485L85.9135 11.715C85.9586 11.0391 86.229 10.4645 86.7246 9.99139C87.2429 9.51823 87.8512 9.28165 88.5497 9.28165H97.7424C98.4634 9.28165 99.083 9.5295 99.6012 10.0252C100.119 10.4983 100.379 11.0616 100.379 11.715V28.8162C101.054 28.8162 101.595 29.064 102.001 29.5597C102.406 30.0329 102.609 30.6187 102.609 31.3172V35.6432C102.609 36.2515 102.373 36.7585 101.899 37.164C101.449 37.5921 100.886 37.8062 100.21 37.8062C99.5562 37.8062 99.0041 37.5921 98.5535 37.164C98.1029 36.7585 97.8776 36.2515 97.8776 35.6432V33.1084H85.8459V35.6432C85.8459 36.2515 85.6206 36.7585 85.17 37.164C84.7194 37.5921 84.1674 37.8062 83.5139 37.8062C82.8605 37.8062 82.3085 37.5921 81.8579 37.164C81.4073 36.7585 81.182 36.2515 81.182 35.6432V31.3172C81.182 30.6412 81.396 30.0554 81.8241 29.5597C82.2522 29.064 82.8155 28.8162 83.5139 28.8162ZM119.98 30.9116C118.47 32.5789 116.307 33.4126 113.491 33.4126C110.674 33.4126 108.5 32.5789 106.968 30.9116C105.458 29.2443 104.703 27.1151 104.703 24.524V17.8322C104.703 15.2186 105.424 13.0894 106.866 11.4446C108.308 9.79987 110.517 8.97748 113.491 8.97748C116.465 8.97748 118.673 9.79987 120.115 11.4446C121.557 13.0894 122.278 15.2186 122.278 17.8322V24.524C122.278 27.1151 121.512 29.2443 119.98 30.9116ZM117.546 17.8322C117.546 14.7905 116.194 13.2697 113.491 13.2697C110.787 13.2697 109.435 14.7905 109.435 17.8322V24.524C109.435 25.9209 109.773 27.0362 110.449 27.8699C111.147 28.7035 112.161 29.1204 113.491 29.1204C114.82 29.1204 115.823 28.7035 116.499 27.8699C117.197 27.0362 117.546 25.9209 117.546 24.524V17.8322ZM147.401 11.2081V31.2834C147.401 31.8467 147.164 32.3423 146.691 32.7704C146.24 33.1985 145.7 33.4126 145.069 33.4126C144.415 33.4126 143.852 33.1985 143.379 32.7704C142.906 32.3423 142.669 31.8467 142.669 31.2834V19.6573L138.816 27.2278C138.388 28.0839 137.645 28.512 136.586 28.512C135.549 28.512 134.817 28.0839 134.389 27.2278L130.536 19.6573V31.2834C130.536 31.8692 130.288 32.3761 129.793 32.8042C129.319 33.2098 128.756 33.4126 128.103 33.4126C127.472 33.4126 126.931 33.2098 126.481 32.8042C126.03 32.3761 125.805 31.8692 125.805 31.2834V11.2081C125.805 10.5772 126.03 10.0477 126.481 9.61962C126.954 9.19153 127.539 8.97748 128.238 8.97748C129.387 8.97748 130.176 9.41684 130.604 10.2956L136.62 22.2258L142.635 10.2618C143.041 9.40558 143.818 8.97748 144.967 8.97748C145.643 8.97748 146.218 9.2028 146.691 9.65342C147.164 10.0815 147.401 10.5997 147.401 11.2081ZM155.741 28.4106L154.626 31.8241C154.468 32.2973 154.164 32.6803 153.714 32.9732C153.263 33.2661 152.824 33.4126 152.396 33.4126C151.72 33.4126 151.145 33.2098 150.672 32.8042C150.199 32.3987 149.962 31.8804 149.962 31.2496C149.962 30.9116 149.996 30.6638 150.064 30.506L156.654 11.2757C156.902 10.5321 157.228 9.96886 157.634 9.58583C158.062 9.18026 158.648 8.97748 159.391 8.97748C160.158 8.97748 160.743 9.18026 161.149 9.58583C161.554 9.96886 161.892 10.5321 162.163 11.2757L168.753 30.506C168.821 30.6863 168.855 30.9341 168.855 31.2496C168.855 31.8804 168.618 32.3987 168.145 32.8042C167.694 33.2098 167.12 33.4126 166.421 33.4126C165.971 33.4126 165.509 33.2661 165.036 32.9732C164.585 32.6578 164.281 32.2747 164.123 31.8241L162.94 28.4106H155.741ZM161.723 24.5578L160 18.7786C159.797 18.1026 159.594 16.9986 159.391 15.4665C159.189 16.9986 158.986 18.1026 158.783 18.7786L156.992 24.5578H161.723ZM194.231 11.1743V30.9116C194.231 31.4974 193.995 32.0156 193.522 32.4663C193.049 32.8944 192.497 33.1084 191.866 33.1084H173.852C173.199 33.1084 172.635 32.8944 172.162 32.4663C171.712 32.0156 171.486 31.4974 171.486 30.9116V11.1743C171.486 10.5885 171.712 10.0815 172.162 9.65342C172.635 9.2028 173.199 8.97748 173.852 8.97748C174.483 8.97748 175.035 9.2028 175.508 9.65342C175.981 10.0815 176.218 10.5885 176.218 11.1743V28.8162H180.476V11.1405C180.476 10.5547 180.701 10.0477 181.152 9.61962C181.625 9.19153 182.189 8.97748 182.842 8.97748C183.473 8.97748 184.025 9.19153 184.498 9.61962C184.971 10.0477 185.208 10.5547 185.208 11.1405V28.8162H189.5V11.1743C189.5 10.5885 189.736 10.0815 190.21 9.65342C190.683 9.2028 191.235 8.97748 191.866 8.97748C192.497 8.97748 193.049 9.2028 193.522 9.65342C193.995 10.0815 194.231 10.5885 194.231 11.1743ZM215.179 31.2158C215.179 31.8016 214.942 32.3198 214.469 32.7704C213.996 33.1985 213.444 33.4126 212.813 33.4126C212.182 33.4126 211.63 33.1985 211.157 32.7704C210.684 32.3198 210.447 31.8016 210.447 31.2158V23.3411H203.249V31.2158C203.249 31.8016 203.012 32.3198 202.539 32.7704C202.066 33.1985 201.514 33.4126 200.883 33.4126C200.229 33.4126 199.666 33.1985 199.193 32.7704C198.742 32.3198 198.517 31.8016 198.517 31.2158V11.1405C198.517 10.5547 198.742 10.0477 199.193 9.61962C199.666 9.19153 200.229 8.97748 200.883 8.97748C201.514 8.97748 202.066 9.19153 202.539 9.61962C203.012 10.0477 203.249 10.5547 203.249 11.1405V19.0151H210.447V11.1405C210.447 10.5772 210.684 10.0815 211.157 9.65342C211.63 9.2028 212.182 8.97748 212.813 8.97748C213.444 8.97748 213.996 9.2028 214.469 9.65342C214.942 10.0815 215.179 10.5772 215.179 11.1405V31.2158ZM221.976 33.4126C221.255 33.4126 220.658 33.1873 220.185 32.7366C219.712 32.286 219.475 31.7453 219.475 31.1144V11.1743C219.475 10.5659 219.7 10.0477 220.151 9.61962C220.602 9.19153 221.154 8.97748 221.807 8.97748C222.46 8.97748 223.024 9.2028 223.497 9.65342C223.97 10.0815 224.207 10.5885 224.207 11.1743V23.9495C224.928 22.6652 225.795 21.1443 226.809 19.3869C227.823 17.6069 228.724 16.0185 229.513 14.6215C230.301 13.2246 231.146 11.7601 232.047 10.228C232.588 9.39431 233.354 8.97748 234.346 8.97748C235.044 8.97748 235.63 9.2028 236.103 9.65342C236.576 10.0815 236.813 10.6223 236.813 11.2757V31.2158C236.813 31.8241 236.587 32.3423 236.137 32.7704C235.686 33.1985 235.134 33.4126 234.481 33.4126C233.827 33.4126 233.264 33.1985 232.791 32.7704C232.318 32.3198 232.081 31.8016 232.081 31.2158V18.5758L224.24 32.2297C223.745 33.0183 222.99 33.4126 221.976 33.4126ZM249.576 4.5501C250.252 4.5501 250.917 4.20087 251.57 3.5024C251.953 2.98418 252.471 2.72507 253.125 2.72507C253.643 2.72507 254.06 2.89406 254.375 3.23203C254.691 3.54746 254.77 4.00935 254.612 4.6177C254.364 5.51894 253.711 6.25121 252.652 6.81449C251.615 7.37777 250.59 7.65941 249.576 7.65941C248.562 7.65941 247.537 7.38903 246.501 6.84829C245.487 6.285 244.833 5.54147 244.54 4.6177C244.383 4.00935 244.462 3.54746 244.777 3.23203C245.092 2.89406 245.509 2.72507 246.027 2.72507C246.703 2.72507 247.21 2.98418 247.548 3.5024C248.247 4.20087 248.923 4.5501 249.576 4.5501ZM243.594 33.4126C244.608 33.4126 245.363 33.0183 245.858 32.2297L253.699 18.5758V31.2158C253.699 31.8016 253.936 32.3198 254.409 32.7704C254.882 33.1985 255.445 33.4126 256.099 33.4126C256.752 33.4126 257.304 33.1985 257.755 32.7704C258.206 32.3423 258.431 31.8241 258.431 31.2158V11.2757C258.431 10.6223 258.194 10.0815 257.721 9.65342C257.248 9.2028 256.662 8.97748 255.964 8.97748C254.972 8.97748 254.206 9.39431 253.666 10.228C252.764 11.7601 251.919 13.2246 251.131 14.6215C250.342 16.0185 249.441 17.6069 248.427 19.3869C247.413 21.1443 246.546 22.6652 245.825 23.9495V11.1743C245.825 10.5885 245.588 10.0815 245.115 9.65342C244.642 9.2028 244.078 8.97748 243.425 8.97748C242.772 8.97748 242.22 9.19153 241.769 9.61962C241.318 10.0477 241.093 10.5659 241.093 11.1743V31.1144C241.093 31.7453 241.33 32.286 241.803 32.7366C242.276 33.1873 242.873 33.4126 243.594 33.4126Z" fill="#C64922"/>
<path d="M93.1805 60.0989C93.1805 61.8692 92.4887 63.3953 91.105 64.6772C89.7213 65.9388 87.9205 66.5696 85.7026 66.5696C84.7259 66.5696 83.7186 66.4577 82.6809 66.2339C81.6635 66.01 80.7478 65.6438 79.9339 65.1351C79.1199 64.606 78.713 64.0058 78.713 63.3343C78.713 62.8459 78.9063 62.4186 79.2929 62.0523C79.6999 61.6861 80.1679 61.5029 80.6969 61.5029C81.0428 61.5029 81.694 61.7369 82.6503 62.2049C83.6067 62.6526 84.5224 62.8764 85.3973 62.8764C86.4961 62.8764 87.3609 62.6119 87.9917 62.0829C88.6225 61.5335 88.9379 60.8416 88.9379 60.0073C88.9379 58.3591 87.4627 57.4435 84.5122 57.2604C84.1459 57.24 83.8509 57.2095 83.6271 57.1688C83.4236 57.1281 83.1896 57.0467 82.925 56.9246C82.6605 56.8025 82.4672 56.6092 82.3451 56.3447C82.223 56.0802 82.162 55.7342 82.162 55.3069C82.162 54.9 82.223 54.5642 82.3451 54.2997C82.4672 54.0352 82.6503 53.852 82.8945 53.7503C83.1387 53.6282 83.3524 53.557 83.5355 53.5366C83.7186 53.5163 83.9628 53.4959 84.268 53.4756C85.4075 53.4349 86.3944 53.1704 87.2287 52.682C88.063 52.1937 88.4801 51.5018 88.4801 50.6065C88.4801 49.9554 88.2461 49.3958 87.7781 48.9278C87.3101 48.4394 86.5775 48.1953 85.5805 48.1953C84.7259 48.1953 83.9425 48.358 83.2303 48.6836C83.0878 48.7447 82.864 48.8667 82.5588 49.0499C82.2739 49.2127 82.0094 49.3449 81.7652 49.4467C81.521 49.5281 81.2667 49.5688 81.0021 49.5688C80.4934 49.5688 80.0356 49.3958 79.6286 49.0499C79.242 48.704 79.0487 48.2868 79.0487 47.7985C79.0487 46.8625 79.7813 46.079 81.2463 45.4483C82.7317 44.8175 84.2579 44.5021 85.8247 44.5021C87.9409 44.5021 89.5992 45.1227 90.7998 46.3639C92.0207 47.6052 92.6311 48.999 92.6311 50.5455C92.6311 52.4582 91.4916 53.9945 89.2126 55.1543C91.8579 56.2124 93.1805 57.8606 93.1805 60.0989ZM99.9946 62.0523L98.9874 65.1351C98.8449 65.5624 98.5702 65.9083 98.1633 66.1728C97.7563 66.4374 97.3595 66.5696 96.9729 66.5696C96.3624 66.5696 95.8436 66.3865 95.4163 66.0202C94.9889 65.654 94.7753 65.1859 94.7753 64.6162C94.7753 64.311 94.8058 64.0871 94.8669 63.9447L100.819 46.5776C101.043 45.9061 101.338 45.3974 101.704 45.0515C102.09 44.6852 102.619 44.5021 103.291 44.5021C103.983 44.5021 104.512 44.6852 104.878 45.0515C105.244 45.3974 105.55 45.9061 105.794 46.5776L111.746 63.9447C111.807 64.1075 111.837 64.3313 111.837 64.6162C111.837 65.1859 111.624 65.654 111.196 66.0202C110.789 66.3865 110.27 66.5696 109.64 66.5696C109.233 66.5696 108.816 66.4374 108.388 66.1728C107.981 65.888 107.707 65.542 107.564 65.1351L106.496 62.0523H99.9946ZM105.397 58.5728L103.84 53.3535C103.657 52.7431 103.474 51.746 103.291 50.3623C103.108 51.746 102.925 52.7431 102.742 53.3535L101.124 58.5728H105.397ZM118.487 48.6531V64.5857C118.487 65.1147 118.273 65.5726 117.846 65.9592C117.419 66.3458 116.92 66.5391 116.35 66.5391C115.76 66.5391 115.252 66.3458 114.824 65.9592C114.417 65.5726 114.214 65.1147 114.214 64.5857V46.8828C114.214 46.3537 114.438 45.8756 114.885 45.4483C115.333 45.0006 115.872 44.7768 116.503 44.7768H124.805C125.395 44.7768 125.894 44.9701 126.301 45.3567C126.708 45.7433 126.911 46.2011 126.911 46.7302C126.911 47.2796 126.708 47.7374 126.301 48.1037C125.894 48.47 125.395 48.6531 124.805 48.6531H118.487ZM142.453 64.311C141.09 65.8167 139.137 66.5696 136.593 66.5696C134.05 66.5696 132.086 65.8167 130.702 64.311C129.339 62.8052 128.657 60.8823 128.657 58.5423V52.4989C128.657 50.1385 129.308 48.2156 130.611 46.7302C131.913 45.2448 133.907 44.5021 136.593 44.5021C139.279 44.5021 141.273 45.2448 142.575 46.7302C143.878 48.2156 144.529 50.1385 144.529 52.4989V58.5423C144.529 60.8823 143.837 62.8052 142.453 64.311ZM140.256 52.4989C140.256 49.7519 139.035 48.3784 136.593 48.3784C134.151 48.3784 132.93 49.7519 132.93 52.4989V58.5423C132.93 59.8039 133.236 60.8111 133.846 61.564C134.477 62.3169 135.393 62.6933 136.593 62.6933C137.794 62.6933 138.699 62.3169 139.31 61.564C139.94 60.8111 140.256 59.8039 140.256 58.5423V52.4989ZM151.534 64.6162V48.6531H148.299C147.688 48.6531 147.18 48.47 146.773 48.1037C146.366 47.7171 146.162 47.2592 146.162 46.7302C146.162 46.2825 146.376 45.845 146.803 45.4177C147.231 44.9904 147.729 44.7768 148.299 44.7768H159.043C159.612 44.7768 160.111 44.9701 160.538 45.3567C160.986 45.7433 161.21 46.2011 161.21 46.7302C161.21 47.2389 160.996 47.6866 160.569 48.0732C160.141 48.4598 159.633 48.6531 159.043 48.6531H155.807V64.6162C155.807 65.1453 155.594 65.6031 155.166 65.9897C154.739 66.3763 154.24 66.5696 153.671 66.5696C153.081 66.5696 152.572 66.3763 152.145 65.9897C151.738 65.6031 151.534 65.1453 151.534 64.6162ZM176.612 64.311C175.249 65.8167 173.295 66.5696 170.752 66.5696C168.208 66.5696 166.245 65.8167 164.861 64.311C163.498 62.8052 162.816 60.8823 162.816 58.5423V52.4989C162.816 50.1385 163.467 48.2156 164.769 46.7302C166.072 45.2448 168.066 44.5021 170.752 44.5021C173.438 44.5021 175.432 45.2448 176.734 46.7302C178.036 48.2156 178.688 50.1385 178.688 52.4989V58.5423C178.688 60.8823 177.996 62.8052 176.612 64.311ZM174.414 52.4989C174.414 49.7519 173.194 48.3784 170.752 48.3784C168.31 48.3784 167.089 49.7519 167.089 52.4989V58.5423C167.089 59.8039 167.394 60.8111 168.005 61.564C168.636 62.3169 169.551 62.6933 170.752 62.6933C171.952 62.6933 172.858 62.3169 173.468 61.564C174.099 60.8111 174.414 59.8039 174.414 58.5423V52.4989ZM186.268 53.2009H189.778C190.388 53.2009 190.927 52.9974 191.395 52.5905C191.884 52.1631 192.128 51.573 192.128 50.8202C192.128 50.169 191.955 49.64 191.609 49.233C191.263 48.826 190.724 48.6226 189.991 48.6226H186.268V53.2009ZM189.869 57.1077H186.268V62.4186H189.686C190.683 62.4186 191.436 62.1948 191.945 61.7471C192.454 61.2791 192.708 60.6381 192.708 59.8242C192.708 58.9696 192.443 58.3083 191.914 57.8403C191.385 57.3519 190.704 57.1077 189.869 57.1077ZM189.412 66.2949H184.375C183.704 66.2949 183.134 66.0813 182.666 65.654C182.218 65.2266 181.995 64.7078 181.995 64.0973V46.9744C181.995 46.3639 182.229 45.845 182.697 45.4177C183.165 44.9904 183.724 44.7768 184.375 44.7768H189.534C191.711 44.7768 193.4 45.3669 194.6 46.5471C195.801 47.7069 196.401 49.1109 196.401 50.7591C196.401 52.6108 195.333 54.0555 193.196 55.0933C195.719 56.1107 196.981 57.708 196.981 59.8853C196.981 61.7166 196.289 63.2427 194.906 64.4636C193.542 65.6845 191.711 66.2949 189.412 66.2949ZM201.896 66.2949C201.306 66.2949 200.797 66.1016 200.37 65.715C199.963 65.308 199.759 64.84 199.759 64.311V46.486C199.759 45.957 199.963 45.4991 200.37 45.1125C200.797 44.7056 201.306 44.5021 201.896 44.5021C202.466 44.5021 202.964 44.7056 203.392 45.1125C203.819 45.4991 204.033 45.957 204.033 46.486V62.4186H207.878V46.4555C207.878 45.9264 208.082 45.4686 208.489 45.082C208.916 44.6954 209.425 44.5021 210.015 44.5021C210.585 44.5021 211.083 44.6954 211.511 45.082C211.938 45.4686 212.152 45.9264 212.152 46.4555V62.4186H216.028V46.486C216.028 45.957 216.241 45.4991 216.669 45.1125C217.096 44.7056 217.595 44.5021 218.164 44.5021C218.734 44.5021 219.233 44.7056 219.66 45.1125C220.087 45.4991 220.301 45.957 220.301 46.486V62.4186H220.606C221.176 62.4186 221.674 62.6221 222.102 63.029C222.529 63.4157 222.743 63.8633 222.743 64.372V68.7977C222.743 69.3268 222.529 69.7846 222.102 70.1712C221.674 70.5782 221.176 70.7817 220.606 70.7817C220.036 70.7817 219.538 70.5782 219.111 70.1712C218.683 69.7846 218.47 69.3268 218.47 68.7977V66.2949H201.896ZM227.175 66.5696C226.524 66.5696 225.985 66.3661 225.557 65.9592C225.13 65.5522 224.916 65.0639 224.916 64.4941V46.486C224.916 45.9366 225.12 45.4686 225.527 45.082C225.934 44.6954 226.432 44.5021 227.023 44.5021C227.613 44.5021 228.121 44.7056 228.549 45.1125C228.976 45.4991 229.19 45.957 229.19 46.486V58.0234C229.841 56.8636 230.624 55.4901 231.54 53.9029C232.455 52.2954 233.269 50.8609 233.982 49.5993C234.694 48.3377 235.457 47.0151 236.271 45.6314C236.759 44.8785 237.451 44.5021 238.346 44.5021C238.977 44.5021 239.506 44.7056 239.933 45.1125C240.361 45.4991 240.574 45.9875 240.574 46.5776V64.5857C240.574 65.1351 240.371 65.6031 239.964 65.9897C239.557 66.3763 239.058 66.5696 238.468 66.5696C237.878 66.5696 237.37 66.3763 236.942 65.9897C236.515 65.5827 236.301 65.1147 236.301 64.5857V53.1704L229.22 65.5013C228.772 66.2135 228.091 66.5696 227.175 66.5696ZM248.713 46.4555V53.5672H249.079L255.184 45.3872C255.631 44.7971 256.222 44.5021 256.954 44.5021C257.565 44.5021 258.063 44.7259 258.45 45.1736C258.836 45.6009 259.03 46.0587 259.03 46.5471C259.03 46.893 258.918 47.2389 258.694 47.5848L252.681 55.5206L258.694 63.4869C258.918 63.8328 259.03 64.1787 259.03 64.5246C259.03 65.013 258.836 65.481 258.45 65.9287C258.063 66.356 257.565 66.5696 256.954 66.5696C256.222 66.5696 255.631 66.2746 255.184 65.6845L249.049 57.474H248.713V64.5857C248.713 65.1147 248.499 65.5827 248.072 65.9897C247.645 66.3763 247.146 66.5696 246.577 66.5696C245.986 66.5696 245.478 66.3763 245.05 65.9897C244.643 65.5827 244.44 65.1147 244.44 64.5857V46.4555C244.44 45.9264 244.643 45.4686 245.05 45.082C245.478 44.6954 245.986 44.5021 246.577 44.5021C247.146 44.5021 247.645 44.6954 248.072 45.082C248.499 45.4686 248.713 45.9264 248.713 46.4555Z" fill="#86A136"/>
<path d="M35.2546 8.77265C35.7342 8.66364 36.0569 8.6898 36.0569 9.72319C36.0569 10.7566 35.7604 10.9005 35.1935 10.931C34.6267 10.9615 34.4523 10.5473 34.4523 9.74936C34.4 8.74212 34.7619 8.65928 35.2546 8.77265Z" fill="#95A5A5"/>
<path d="M35.1625 23.5104H11.1808C10.1082 23.5104 10.0602 23.4624 10.0558 22.3636C10.0558 21.8229 10.0558 21.2779 10.0558 20.7372C10.0427 20.4502 10.0906 20.1636 10.1964 19.8965C10.3021 19.6293 10.4634 19.3877 10.6694 19.1874C10.8754 18.9871 11.1216 18.8328 11.3916 18.7347C11.6617 18.6366 11.9495 18.5968 12.236 18.6181C14.1196 18.5963 16.0077 18.6181 17.9044 18.6181H57.7795C58.1634 18.6158 58.5465 18.6553 58.9219 18.7358C59.3446 18.8196 59.7259 19.0458 60.0021 19.3767C60.2782 19.7076 60.4325 20.1231 60.4393 20.5541C60.4953 21.3013 60.5055 22.0512 60.4698 22.7996C60.4698 23.4232 60.0643 23.5234 59.528 23.5234C53.659 23.5234 47.7885 23.5234 41.9167 23.5234H35.1625V23.5104Z" fill="url(#paint0_linear_1_21)"/>
<path d="M59.0136 33.1689C59.0136 31.0498 59.0136 29.14 59.0136 27.2301C59.0136 26.6415 59.3668 26.72 59.72 26.72H67.6994C68.3708 26.72 69.0423 26.72 69.7138 26.72C69.8033 26.7051 69.895 26.7108 69.982 26.7367C70.0689 26.7626 70.1488 26.8079 70.2157 26.8693C70.2825 26.9306 70.3344 27.0064 70.3676 27.0908C70.4008 27.1753 70.4143 27.2661 70.4071 27.3566V27.4351C70.5641 29.1399 70.4376 29.2882 68.711 29.358C65.4364 29.4888 62.4583 30.435 59.9162 32.5759C59.6255 32.7886 59.3242 32.9865 59.0136 33.1689ZM59.4496 31.9742C60.4341 31.3236 61.4529 30.7268 62.5019 30.1864C63.5331 29.7281 64.6045 29.3661 65.7023 29.1051C66.7706 28.8434 67.8825 28.7388 68.9638 28.5644C68.3038 28.4137 67.6333 28.3131 66.9581 28.2635C64.5311 28.1112 62.0967 28.4068 59.7767 29.1356C59.6961 29.1794 59.6271 29.2418 59.5755 29.3177C59.524 29.3935 59.4913 29.4806 59.4802 29.5716C59.4453 30.3172 59.4627 31.0847 59.4627 31.9742H59.4496Z" fill="#95A5A5"/>
<path d="M10.5445 32.5717C8.00247 30.4308 5.02873 29.4846 1.74978 29.3538C0.0056497 29.2841 -0.103358 29.1358 0.0492528 27.4309C0.0492528 27.4048 0.0492528 27.3786 0.0492528 27.3524C0.0419196 27.2616 0.0554792 27.1702 0.0888932 27.0854C0.122307 27.0006 0.174689 26.9246 0.242027 26.8631C0.309365 26.8017 0.389873 26.7565 0.477384 26.7309C0.564895 26.7054 0.657089 26.7002 0.746903 26.7158C1.41839 26.7158 2.08988 26.7158 2.76137 26.7158H10.7407C11.0983 26.7158 11.4602 26.6374 11.4515 27.226C11.4253 29.1358 11.4515 31.0456 11.4515 33.1647C11.1389 32.9832 10.8362 32.7853 10.5445 32.5717ZM10.9806 29.5457C10.9713 29.4541 10.9393 29.3662 10.8875 29.2901C10.8358 29.214 10.7658 29.152 10.6841 29.1097C8.3597 28.3882 5.92224 28.1014 3.4939 28.2638C2.81866 28.313 2.14814 28.4136 1.48816 28.5646C2.57387 28.739 3.66831 28.8437 4.74531 29.1053C5.84337 29.3657 6.91482 29.7277 7.94578 30.1867C8.99412 30.7281 10.013 31.3249 10.998 31.9744C10.9936 31.0849 11.0067 30.3175 10.9762 29.5457H10.9806Z" fill="#95A5A5"/>
<path d="M58.6129 57.4341V25.098C58.6129 24.2041 58.6129 24.2041 57.719 24.2041H12.9124C11.8311 24.2041 11.8311 24.2041 11.8311 25.2637C11.8311 35.99 11.8311 46.7164 11.8311 57.4428C11.8311 57.5649 11.8311 57.6739 11.8311 57.7654C11.8311 57.857 11.8311 57.8309 11.8311 57.8657C11.8311 62.4092 22.2958 66.0937 35.2285 66.0937C48.1612 66.0937 58.6216 62.4092 58.6216 57.8657C58.6216 57.8003 58.6216 57.7393 58.6216 57.6782L58.6129 57.4341Z" fill="url(#paint1_linear_1_21)"/>
<path d="M35.5466 30.7793H35.5423C33.5676 30.7793 31.9668 32.3801 31.9668 34.3548V53.309C31.9668 55.2837 33.5676 56.8845 35.5423 56.8845H35.5466C37.5213 56.8845 39.1221 55.2837 39.1221 53.309V34.3548C39.1221 32.3801 37.5213 30.7793 35.5466 30.7793Z" fill="#CECECE"/>
<path d="M37.068 53.3619C37.0657 53.7463 36.912 54.1143 36.6402 54.3861C36.3684 54.6579 36.0004 54.8116 35.616 54.8139C35.2377 54.806 34.8771 54.6516 34.6104 54.3832C34.3436 54.1148 34.1914 53.7534 34.1858 53.375C34.1806 53.1063 34.2505 52.8415 34.3876 52.6104C34.5247 52.3793 34.7236 52.191 34.962 52.0669L35.2672 51.9055V49.8867H36.0041V51.9055L36.3093 52.0669C36.5424 52.1924 36.7364 52.3796 36.8702 52.608C37.004 52.8364 37.0725 53.0972 37.068 53.3619Z" fill="#43A3F9"/>
<path d="M35.9737 35.1611H35.2324V49.899H35.9737V35.1611Z" fill="#E64C3C"/>
<path d="M35.9737 39.2773H35.2324V50.1389H35.9737V39.2773Z" fill="#43A3F9"/>
<path d="M37.5031 48.4649H36.5351C36.5108 48.4688 36.4859 48.4674 36.4622 48.4608C36.4385 48.4542 36.4165 48.4425 36.3977 48.4265C36.379 48.4105 36.3639 48.3907 36.3536 48.3683C36.3432 48.346 36.3379 48.3216 36.3379 48.297C36.3379 48.2724 36.3432 48.248 36.3536 48.2257C36.3639 48.2033 36.379 48.1835 36.3977 48.1675C36.4165 48.1516 36.4385 48.1399 36.4622 48.1332C36.4859 48.1266 36.5108 48.1252 36.5351 48.1291H37.5031C37.5274 48.1252 37.5523 48.1266 37.576 48.1332C37.5997 48.1399 37.6217 48.1516 37.6404 48.1675C37.6592 48.1835 37.6743 48.2033 37.6846 48.2257C37.6949 48.248 37.7003 48.2724 37.7003 48.297C37.7003 48.3216 37.6949 48.346 37.6846 48.3683C37.6743 48.3907 37.6592 48.4105 37.6404 48.4265C37.6217 48.4425 37.5997 48.4542 37.576 48.4608C37.5523 48.4674 37.5274 48.4688 37.5031 48.4649Z" fill="#43A3F9"/>
<path d="M36.9811 47.0911H36.5451C36.5003 47.09 36.4577 47.0718 36.426 47.0401C36.3944 47.0085 36.3761 46.9658 36.375 46.9211C36.375 46.876 36.3929 46.8327 36.4248 46.8008C36.4567 46.769 36.5 46.751 36.5451 46.751H36.9811C37.0036 46.7504 37.026 46.7544 37.0469 46.7628C37.0678 46.7711 37.0868 46.7836 37.1027 46.7995C37.1186 46.8154 37.1311 46.8344 37.1394 46.8553C37.1477 46.8762 37.1517 46.8986 37.1511 46.9211C37.1511 46.9662 37.1332 47.0094 37.1013 47.0413C37.0694 47.0732 37.0262 47.0911 36.9811 47.0911Z" fill="#43A3F9"/>
<path d="M37.1412 45.7227H36.5351C36.5108 45.7266 36.4859 45.7252 36.4622 45.7186C36.4385 45.712 36.4165 45.7003 36.3977 45.6843C36.379 45.6683 36.3639 45.6485 36.3536 45.6261C36.3432 45.6038 36.3379 45.5794 36.3379 45.5548C36.3379 45.5302 36.3432 45.5059 36.3536 45.4835C36.3639 45.4611 36.379 45.4413 36.3977 45.4253C36.4165 45.4094 36.4385 45.3977 36.4622 45.391C36.4859 45.3844 36.5108 45.383 36.5351 45.3869H37.1412C37.181 45.3934 37.2173 45.4138 37.2435 45.4446C37.2697 45.4753 37.2841 45.5144 37.2841 45.5548C37.2841 45.5952 37.2697 45.6343 37.2435 45.6651C37.2173 45.6958 37.181 45.7162 37.1412 45.7227Z" fill="#43A3F9"/>
<path d="M37.1412 51.2071H36.5351C36.5108 51.211 36.4859 51.2096 36.4622 51.203C36.4385 51.1963 36.4165 51.1846 36.3977 51.1687C36.379 51.1527 36.3639 51.1329 36.3536 51.1105C36.3432 51.0882 36.3379 51.0638 36.3379 51.0392C36.3379 51.0146 36.3432 50.9902 36.3536 50.9679C36.3639 50.9455 36.379 50.9257 36.3977 50.9097C36.4165 50.8937 36.4385 50.882 36.4622 50.8754C36.4859 50.8688 36.5108 50.8674 36.5351 50.8713H37.1412C37.181 50.8778 37.2173 50.8982 37.2435 50.929C37.2697 50.9597 37.2841 50.9988 37.2841 51.0392C37.2841 51.0796 37.2697 51.1187 37.2435 51.1494C37.2173 51.1802 37.181 51.2006 37.1412 51.2071Z" fill="#43A3F9"/>
<path d="M36.9811 49.8382H36.5451C36.5 49.8382 36.4567 49.8202 36.4248 49.7883C36.3929 49.7565 36.375 49.7132 36.375 49.6681C36.375 49.623 36.3929 49.5797 36.4248 49.5479C36.4567 49.516 36.5 49.498 36.5451 49.498H36.9811C37.0262 49.498 37.0694 49.516 37.1013 49.5479C37.1332 49.5797 37.1511 49.623 37.1511 49.6681C37.1511 49.7132 37.1332 49.7565 37.1013 49.7883C37.0694 49.8202 37.0262 49.8382 36.9811 49.8382Z" fill="#43A3F9"/>
<path d="M37.5052 41.6106H36.5372C36.4921 41.6106 36.4489 41.5927 36.417 41.5608C36.3851 41.5289 36.3672 41.4857 36.3672 41.4406C36.3672 41.3955 36.3851 41.3522 36.417 41.3203C36.4489 41.2884 36.4921 41.2705 36.5372 41.2705H37.5052C37.5503 41.2705 37.5936 41.2884 37.6255 41.3203C37.6574 41.3522 37.6753 41.3955 37.6753 41.4406C37.6753 41.4857 37.6574 41.5289 37.6255 41.5608C37.5936 41.5927 37.5503 41.6106 37.5052 41.6106Z" fill="#43A3F9"/>
<path d="M37.5031 37.4984H36.5177C36.473 37.4973 36.4303 37.479 36.3987 37.4473C36.367 37.4157 36.3488 37.3731 36.3477 37.3283C36.3477 37.2832 36.3656 37.24 36.3975 37.2081C36.4294 37.1762 36.4726 37.1583 36.5177 37.1583H37.5031C37.5256 37.1577 37.548 37.1616 37.5689 37.17C37.5898 37.1783 37.6088 37.1908 37.6247 37.2067C37.6406 37.2226 37.6531 37.2416 37.6615 37.2625C37.6698 37.2834 37.6738 37.3058 37.6732 37.3283C37.6732 37.3734 37.6553 37.4167 37.6234 37.4486C37.5915 37.4805 37.5482 37.4984 37.5031 37.4984Z" fill="#ADADAD"/>
<path d="M36.9809 40.2373H36.5449C36.5205 40.2413 36.4957 40.2399 36.4719 40.2332C36.4482 40.2266 36.4262 40.2149 36.4075 40.199C36.3887 40.183 36.3737 40.1631 36.3633 40.1408C36.353 40.1184 36.3477 40.0941 36.3477 40.0695C36.3477 40.0448 36.353 40.0205 36.3633 39.9981C36.3737 39.9758 36.3887 39.9559 36.4075 39.94C36.4262 39.924 36.4482 39.9123 36.4719 39.9057C36.4957 39.8991 36.5205 39.8977 36.5449 39.9016H36.9809C37.0052 39.8977 37.0301 39.8991 37.0538 39.9057C37.0775 39.9123 37.0995 39.924 37.1183 39.94C37.137 39.9559 37.1521 39.9758 37.1624 39.9981C37.1727 40.0205 37.1781 40.0448 37.1781 40.0695C37.1781 40.0941 37.1727 40.1184 37.1624 40.1408C37.1521 40.1631 37.137 40.183 37.1183 40.199C37.0995 40.2149 37.0775 40.2266 37.0538 40.2332C37.0301 40.2399 37.0052 40.2413 36.9809 40.2373Z" fill="#43A3F9"/>
<path d="M37.1433 38.8674H36.5372C36.4921 38.8674 36.4489 38.8495 36.417 38.8176C36.3851 38.7858 36.3672 38.7425 36.3672 38.6974C36.3672 38.6523 36.3851 38.609 36.417 38.5772C36.4489 38.5453 36.4921 38.5273 36.5372 38.5273H37.1433C37.1884 38.5273 37.2317 38.5453 37.2636 38.5772C37.2955 38.609 37.3134 38.6523 37.3134 38.6974C37.3134 38.7425 37.2955 38.7858 37.2636 38.8176C37.2317 38.8495 37.1884 38.8674 37.1433 38.8674Z" fill="#ADADAD"/>
<path d="M37.1412 36.0987H36.5351C36.5108 36.1026 36.4859 36.1012 36.4622 36.0946C36.4385 36.0879 36.4165 36.0762 36.3977 36.0603C36.379 36.0443 36.3639 36.0245 36.3536 36.0021C36.3432 35.9798 36.3379 35.9554 36.3379 35.9308C36.3379 35.9062 36.3432 35.8818 36.3536 35.8595C36.3639 35.8371 36.379 35.8173 36.3977 35.8013C36.4165 35.7853 36.4385 35.7736 36.4622 35.767C36.4859 35.7604 36.5108 35.759 36.5351 35.7629H37.1412C37.181 35.7694 37.2173 35.7898 37.2435 35.8206C37.2697 35.8513 37.2841 35.8904 37.2841 35.9308C37.2841 35.9712 37.2697 36.0103 37.2435 36.041C37.2173 36.0718 37.181 36.0922 37.1412 36.0987Z" fill="#ADADAD"/>
<path d="M37.1433 44.3528H36.5372C36.4921 44.3528 36.4489 44.3349 36.417 44.303C36.3851 44.2711 36.3672 44.2278 36.3672 44.1827C36.3683 44.138 36.3866 44.0954 36.4182 44.0637C36.4499 44.0321 36.4925 44.0138 36.5372 44.0127H37.1433C37.1877 44.0138 37.2298 44.0322 37.2608 44.064C37.2917 44.0958 37.309 44.1384 37.309 44.1827C37.3096 44.2049 37.3057 44.2269 37.2977 44.2475C37.2896 44.2681 37.2775 44.2869 37.2621 44.3027C37.2466 44.3186 37.2281 44.3312 37.2078 44.3398C37.1874 44.3484 37.1655 44.3528 37.1433 44.3528Z" fill="#43A3F9"/>
<path d="M36.9809 42.9795H36.5449C36.5205 42.9835 36.4957 42.9821 36.4719 42.9754C36.4482 42.9688 36.4262 42.9571 36.4075 42.9411C36.3887 42.9252 36.3737 42.9053 36.3633 42.883C36.353 42.8606 36.3477 42.8363 36.3477 42.8117C36.3477 42.787 36.353 42.7627 36.3633 42.7403C36.3737 42.718 36.3887 42.6981 36.4075 42.6822C36.4262 42.6662 36.4482 42.6545 36.4719 42.6479C36.4957 42.6412 36.5205 42.6399 36.5449 42.6438H36.9809C37.0052 42.6399 37.0301 42.6412 37.0538 42.6479C37.0775 42.6545 37.0995 42.6662 37.1183 42.6822C37.137 42.6981 37.1521 42.718 37.1624 42.7403C37.1727 42.7627 37.1781 42.787 37.1781 42.8117C37.1781 42.8363 37.1727 42.8606 37.1624 42.883C37.1521 42.9053 37.137 42.9252 37.1183 42.9411C37.0995 42.9571 37.0775 42.9688 37.0538 42.9754C37.0301 42.9821 37.0052 42.9835 36.9809 42.9795Z" fill="#43A3F9"/>
<path d="M34.6824 37.4984H33.7013C33.6565 37.4973 33.6139 37.479 33.5823 37.4473C33.5506 37.4157 33.5324 37.3731 33.5312 37.3283C33.5312 37.2832 33.5492 37.24 33.5811 37.2081C33.6129 37.1762 33.6562 37.1583 33.7013 37.1583H34.6824C34.7049 37.1577 34.7273 37.1616 34.7482 37.17C34.7691 37.1783 34.788 37.1908 34.804 37.2067C34.8199 37.2226 34.8324 37.2416 34.8407 37.2625C34.849 37.2834 34.853 37.3058 34.8524 37.3283C34.8524 37.3734 34.8345 37.4167 34.8026 37.4486C34.7707 37.4805 34.7275 37.4984 34.6824 37.4984Z" fill="#ADADAD"/>
<path d="M34.6837 36.0987H34.082C34.0576 36.1026 34.0328 36.1012 34.0091 36.0946C33.9853 36.0879 33.9633 36.0762 33.9446 36.0603C33.9258 36.0443 33.9108 36.0245 33.9004 36.0021C33.8901 35.9798 33.8848 35.9554 33.8848 35.9308C33.8848 35.9062 33.8901 35.8818 33.9004 35.8595C33.9108 35.8371 33.9258 35.8173 33.9446 35.8013C33.9633 35.7853 33.9853 35.7736 34.0091 35.767C34.0328 35.7604 34.0576 35.759 34.082 35.7629H34.6837C34.708 35.759 34.7329 35.7604 34.7566 35.767C34.7803 35.7736 34.8023 35.7853 34.8211 35.8013C34.8398 35.8173 34.8549 35.8371 34.8652 35.8595C34.8755 35.8818 34.8809 35.9062 34.8809 35.9308C34.8809 35.9554 34.8755 35.9798 34.8652 36.0021C34.8549 36.0245 34.8398 36.0443 34.8211 36.0603C34.8023 36.0762 34.7803 36.0879 34.7566 36.0946C34.7329 36.1012 34.708 36.1026 34.6837 36.0987Z" fill="#ADADAD"/>
<path d="M33.5312 48.2948C33.5324 48.2505 33.5508 48.2083 33.5826 48.1774C33.6143 48.1464 33.6569 48.1291 33.7013 48.1291H34.6824C34.7067 48.1252 34.7316 48.1266 34.7553 48.1332C34.779 48.1399 34.801 48.1516 34.8197 48.1675C34.8385 48.1835 34.8536 48.2033 34.8639 48.2257C34.8742 48.248 34.8796 48.2724 34.8796 48.297C34.8796 48.3216 34.8742 48.346 34.8639 48.3683C34.8536 48.3907 34.8385 48.4105 34.8197 48.4265C34.801 48.4425 34.779 48.4542 34.7553 48.4608C34.7316 48.4674 34.7067 48.4688 34.6824 48.4649H33.7013C33.6562 48.4649 33.6129 48.447 33.5811 48.4151C33.5492 48.3832 33.5312 48.3399 33.5312 48.2948Z" fill="#43A3F9"/>
<path d="M34.0684 46.926C34.0678 46.9035 34.0718 46.8811 34.0801 46.8602C34.0885 46.8393 34.101 46.8203 34.1169 46.8044C34.1328 46.7885 34.1518 46.776 34.1727 46.7676C34.1936 46.7593 34.216 46.7553 34.2385 46.7559H34.6745C34.697 46.7553 34.7194 46.7593 34.7403 46.7676C34.7612 46.776 34.7802 46.7885 34.7961 46.8044C34.812 46.8203 34.8245 46.8393 34.8328 46.8602C34.8412 46.8811 34.8452 46.9035 34.8446 46.926C34.8446 46.9711 34.8266 47.0143 34.7947 47.0462C34.7629 47.0781 34.7196 47.096 34.6745 47.096H34.2385C34.1934 47.096 34.1501 47.0781 34.1182 47.0462C34.0863 47.0143 34.0684 46.9711 34.0684 46.926Z" fill="#43A3F9"/>
<path d="M33.9102 45.5526C33.9102 45.5305 33.9146 45.5086 33.9232 45.4882C33.9318 45.4678 33.9444 45.4494 33.9603 45.4339C33.9761 45.4185 33.9949 45.4064 34.0155 45.3983C34.0361 45.3902 34.0581 45.3864 34.0803 45.3869H34.682C34.7063 45.383 34.7312 45.3844 34.7549 45.391C34.7786 45.3977 34.8006 45.4094 34.8194 45.4253C34.8381 45.4413 34.8532 45.4611 34.8635 45.4835C34.8738 45.5059 34.8792 45.5302 34.8792 45.5548C34.8792 45.5794 34.8738 45.6038 34.8635 45.6261C34.8532 45.6485 34.8381 45.6683 34.8194 45.6843C34.8006 45.7003 34.7786 45.712 34.7549 45.7186C34.7312 45.7252 34.7063 45.7266 34.682 45.7227H34.0803C34.0578 45.7233 34.0354 45.7193 34.0145 45.711C33.9936 45.7026 33.9746 45.6901 33.9587 45.6742C33.9428 45.6583 33.9303 45.6393 33.9219 45.6184C33.9136 45.5975 33.9096 45.5751 33.9102 45.5526Z" fill="#43A3F9"/>
<path d="M33.9102 51.0414C33.9096 51.0189 33.9136 50.9965 33.9219 50.9756C33.9303 50.9547 33.9428 50.9357 33.9587 50.9198C33.9746 50.9039 33.9936 50.8914 34.0145 50.883C34.0354 50.8747 34.0578 50.8707 34.0803 50.8713H34.682C34.7063 50.8674 34.7312 50.8688 34.7549 50.8754C34.7786 50.882 34.8006 50.8937 34.8194 50.9097C34.8381 50.9257 34.8532 50.9455 34.8635 50.9679C34.8738 50.9902 34.8792 51.0146 34.8792 51.0392C34.8792 51.0638 34.8738 51.0882 34.8635 51.1105C34.8532 51.1329 34.8381 51.1527 34.8194 51.1687C34.8006 51.1846 34.7786 51.1963 34.7549 51.203C34.7312 51.2096 34.7063 51.211 34.682 51.2071H34.0803C34.0581 51.2076 34.0361 51.2038 34.0155 51.1957C33.9949 51.1877 33.9761 51.1755 33.9603 51.1601C33.9444 51.1447 33.9318 51.1262 33.9232 51.1058C33.9146 51.0854 33.9102 51.0635 33.9102 51.0414Z" fill="#43A3F9"/>
<path d="M34.0684 49.6681C34.0684 49.623 34.0863 49.5797 34.1182 49.5479C34.1501 49.516 34.1933 49.498 34.2384 49.498H34.6744C34.7195 49.498 34.7628 49.516 34.7947 49.5479C34.8266 49.5797 34.8445 49.623 34.8445 49.6681C34.8445 49.7132 34.8266 49.7565 34.7947 49.7883C34.7628 49.8202 34.7195 49.8382 34.6744 49.8382H34.2384C34.1933 49.8382 34.1501 49.8202 34.1182 49.7883C34.0863 49.7565 34.0684 49.7132 34.0684 49.6681Z" fill="#43A3F9"/>
<path d="M33.5312 41.423C33.5324 41.3782 33.5506 41.3356 33.5823 41.304C33.6139 41.2723 33.6565 41.254 33.7013 41.2529H34.6824C34.7275 41.2529 34.7707 41.2708 34.8026 41.3027C34.8345 41.3346 34.8524 41.3779 34.8524 41.423C34.8524 41.4681 34.8345 41.5113 34.8026 41.5432C34.7707 41.5751 34.7275 41.593 34.6824 41.593H33.7013C33.6565 41.5919 33.6139 41.5737 33.5823 41.542C33.5506 41.5103 33.5324 41.4677 33.5312 41.423Z" fill="#43A3F9"/>
<path d="M34.0684 40.0716C34.0678 40.0492 34.0718 40.0268 34.0801 40.0059C34.0885 39.985 34.101 39.966 34.1169 39.9501C34.1328 39.9342 34.1518 39.9216 34.1727 39.9133C34.1936 39.905 34.216 39.901 34.2385 39.9016H34.6745C34.6988 39.8977 34.7237 39.8991 34.7474 39.9057C34.7711 39.9123 34.7931 39.924 34.8119 39.94C34.8306 39.9559 34.8457 39.9758 34.856 39.9981C34.8663 40.0205 34.8717 40.0448 34.8717 40.0695C34.8717 40.0941 34.8663 40.1184 34.856 40.1408C34.8457 40.1631 34.8306 40.183 34.8119 40.199C34.7931 40.2149 34.7711 40.2266 34.7474 40.2332C34.7237 40.2399 34.6988 40.2413 34.6745 40.2373H34.2385C34.2163 40.2379 34.1943 40.2341 34.1737 40.226C34.1531 40.2179 34.1343 40.2058 34.1185 40.1904C34.1026 40.1749 34.09 40.1565 34.0814 40.1361C34.0728 40.1157 34.0684 40.0938 34.0684 40.0716Z" fill="#43A3F9"/>
<path d="M33.9102 38.6974C33.9102 38.6523 33.9281 38.609 33.96 38.5772C33.9919 38.5453 34.0351 38.5273 34.0802 38.5273H34.6819C34.727 38.5273 34.7703 38.5453 34.8022 38.5772C34.8341 38.609 34.852 38.6523 34.852 38.6974C34.852 38.7425 34.8341 38.7858 34.8022 38.8176C34.7703 38.8495 34.727 38.8674 34.6819 38.8674H34.0802C34.0351 38.8674 33.9919 38.8495 33.96 38.8176C33.9281 38.7858 33.9102 38.7425 33.9102 38.6974Z" fill="#ADADAD"/>
<path d="M33.9102 44.1827C33.9102 44.1376 33.9281 44.0944 33.96 44.0625C33.9919 44.0306 34.0352 44.0127 34.0803 44.0127H34.682C34.7271 44.0127 34.7703 44.0306 34.8022 44.0625C34.8341 44.0944 34.852 44.1376 34.852 44.1827C34.8526 44.2052 34.8487 44.2276 34.8403 44.2485C34.832 44.2694 34.8195 44.2884 34.8036 44.3043C34.7877 44.3202 34.7687 44.3327 34.7478 44.3411C34.7269 44.3494 34.7045 44.3534 34.682 44.3528H34.0803C34.0578 44.3534 34.0354 44.3494 34.0145 44.3411C33.9936 44.3327 33.9746 44.3202 33.9587 44.3043C33.9428 44.2884 33.9303 44.2694 33.9219 44.2485C33.9136 44.2276 33.9096 44.2052 33.9102 44.1827Z" fill="#43A3F9"/>
<path d="M34.0685 42.814C34.0679 42.7915 34.0719 42.7691 34.0802 42.7482C34.0885 42.7273 34.101 42.7083 34.1169 42.6924C34.1329 42.6765 34.1518 42.664 34.1728 42.6556C34.1937 42.6473 34.216 42.6433 34.2385 42.6439H34.6746C34.6989 42.64 34.7238 42.6414 34.7475 42.648C34.7712 42.6546 34.7932 42.6663 34.8119 42.6823C34.8307 42.6983 34.8458 42.7181 34.8561 42.7405C34.8664 42.7628 34.8718 42.7871 34.8718 42.8118C34.8718 42.8364 34.8664 42.8607 34.8561 42.8831C34.8458 42.9055 34.8307 42.9253 34.8119 42.9413C34.7932 42.9572 34.7712 42.9689 34.7475 42.9756C34.7238 42.9822 34.6989 42.9836 34.6746 42.9796H34.2385C34.2164 42.9802 34.1944 42.9764 34.1738 42.9683C34.1532 42.9602 34.1344 42.9481 34.1185 42.9327C34.1027 42.9172 34.0901 42.8988 34.0815 42.8784C34.0729 42.858 34.0685 42.8361 34.0685 42.814Z" fill="#43A3F9"/>
<path d="M35.2447 7.94457C37.1953 7.94457 38.7766 6.3633 38.7766 4.41271C38.7766 2.46212 37.1953 0.880859 35.2447 0.880859C33.2942 0.880859 31.7129 2.46212 31.7129 4.41271C31.7129 6.3633 33.2942 7.94457 35.2447 7.94457Z" fill="#E6E7E8"/>
<path d="M35.2447 8.82528C34.3719 8.82528 33.5188 8.56648 32.7931 8.08162C32.0675 7.59675 31.5019 6.90759 31.1679 6.10128C30.8339 5.29498 30.7466 4.40775 30.9168 3.55178C31.0871 2.69581 31.5073 1.90955 32.1245 1.29243C32.7416 0.675315 33.5278 0.255052 34.3838 0.0847896C35.2398 -0.085473 36.127 0.00191192 36.9333 0.335894C37.7396 0.669876 38.4288 1.23546 38.9136 1.96111C39.3985 2.68676 39.6573 3.5399 39.6573 4.41264C39.6573 5.58295 39.1924 6.70532 38.3649 7.53285C37.5373 8.36038 36.415 8.82528 35.2447 8.82528ZM35.2447 1.76593C34.72 1.76507 34.2068 1.91993 33.7702 2.2109C33.3335 2.50187 32.9931 2.91587 32.7919 3.40046C32.5907 3.88506 32.5378 4.41846 32.64 4.93313C32.7421 5.44779 32.9947 5.92057 33.3657 6.29159C33.7367 6.66261 34.2095 6.91519 34.7242 7.01734C35.2388 7.11949 35.7722 7.06663 36.2568 6.86543C36.7414 6.66424 37.1554 6.32377 37.4464 5.88714C37.7374 5.4505 37.8922 4.93734 37.8914 4.41264C37.8902 3.71104 37.611 3.03851 37.1149 2.54241C36.6188 2.0463 35.9463 1.76708 35.2447 1.76593Z" fill="#95A5A5"/>
<path d="M35.2452 5.29783C35.0139 5.29783 34.7921 5.20595 34.6285 5.04241C34.465 4.87886 34.3731 4.65705 34.3731 4.42577V3.5537C34.3731 3.32242 34.465 3.10061 34.6285 2.93706C34.7921 2.77352 35.0139 2.68164 35.2452 2.68164C35.4765 2.68164 35.6983 2.77352 35.8618 2.93706C36.0254 3.10061 36.1172 3.32242 36.1172 3.5537V4.42577C36.1172 4.65705 36.0254 4.87886 35.8618 5.04241C35.6983 5.20595 35.4765 5.29783 35.2452 5.29783Z" fill="#E64C3C"/>
<path d="M57.1643 17.8772C52.3679 13.7654 44.3101 11.0664 35.1796 11.0664C26.0491 11.0664 17.9999 13.7436 13.1992 17.8772H57.1643Z" fill="url(#paint2_linear_1_21)"/>
<path d="M48.9408 11.2238C48.5048 10.5713 47.8484 10.0977 47.0917 9.88947C46.3351 9.68129 45.5287 9.75253 44.8203 10.0902L48.9408 11.2238Z" fill="url(#paint3_linear_1_21)"/>
<path d="M48.4276 12.3236L44.7139 11.3076L44.5746 11.8165L48.2883 12.8325L48.4276 12.3236Z" fill="url(#paint4_linear_1_21)"/>
<path d="M48.8692 11.3618L44.7266 10.2285L44.5172 10.994L48.6598 12.1273L48.8692 11.3618Z" fill="url(#paint5_linear_1_21)"/>
<path d="M56.6377 71.4613C57.6493 71.143 58.5388 72.6865 58.0897 73.8812C57.4836 75.4902 55.6872 75.5818 54.1131 76.0614C49.0072 77.7532 31.095 79.6586 15.4284 75.4858C14.3994 75.2111 13.3878 74.3957 13.536 73.2577C13.5958 72.9234 13.7254 72.6054 13.9162 72.3244C14.107 72.0435 14.3548 71.8058 14.6435 71.627C14.7216 71.5802 14.8091 71.5516 14.8997 71.5433C14.9903 71.535 15.0815 71.5472 15.1668 71.579C26.0588 74.7271 41.9565 76.1355 56.6377 71.4613Z" fill="url(#paint6_linear_1_21)"/>
<path d="M36.4828 73.1445L35.4276 71.0733L34.4509 73.4671C33.81 73.2317 32.8725 73.2186 32.7068 72.5951C32.1661 70.6198 34.4509 69.4905 35.2925 67.6592C35.6845 67.8482 36.0448 68.0968 36.3608 68.3961C37.0858 69.1346 37.6317 70.0296 37.9566 71.0123C38.2444 71.9803 37.8215 72.4686 36.4828 73.1445Z" fill="url(#paint7_linear_1_21)"/>
<path d="M42.0989 67.2314C43.6686 68.0599 44.3271 69.102 44.3183 70.5889C44.3183 71.6005 44.2311 72.5903 43.0102 72.9522C42.713 72.268 42.3586 71.6102 41.9507 70.9857C41.8112 71.5612 41.6673 72.1324 41.4623 72.9565C40.865 72.9958 39.6746 73.4885 39.4043 72.6906C38.602 70.3316 41.6803 69.5163 42.0989 67.2314Z" fill="url(#paint8_linear_1_21)"/>
<path d="M28.661 67.2402C30.2612 68.8666 31.3644 70.5017 30.6536 72.8825L29.8906 72.9828C29.4938 72.2502 29.0796 71.4828 28.5302 70.4756L28.2685 72.8302C27.3224 73.179 26.6552 72.8302 26.1974 72.0235C25.7396 71.2168 26.0971 70.5454 26.5985 69.9087C27.2439 69.0977 27.8718 68.2693 28.661 67.2402Z" fill="url(#paint9_linear_1_21)"/>
<path d="M48.4491 70.5063C47.577 71.5397 47.3285 72.922 45.7588 72.8609C45.7588 72.8609 47.4506 68.6489 48.4447 66.835C50.9301 68.9279 50.9476 70.502 48.6017 72.1066L48.4491 70.5063Z" fill="url(#paint10_linear_1_21)"/>
<path d="M24.5011 72.9084L22.321 70.0612L22.6 72.2064C21.1219 71.7006 20.6815 71.2515 21.0042 68.9929C21.135 68.0903 21.9765 67.4755 22.4692 66.7168C23.2622 67.5224 23.8582 68.5005 24.2106 69.5746C24.5631 70.6486 24.6625 71.7896 24.5011 72.9084Z" fill="url(#paint11_linear_1_21)"/>
<path d="M53.6377 65.7842C55.5475 68.0559 55.5344 69.0326 53.6159 70.9381C53.4022 70.7942 53.3717 69.2637 53.2496 69.1939C52.6348 69.6997 51.8587 71.566 51.0695 72.2069C50.8384 70.6765 51.6581 69.9134 52.1508 69.0021C52.6435 68.0908 53.0927 66.9833 53.6377 65.7842Z" fill="url(#paint12_linear_1_21)"/>
<path d="M57.2516 64.9688C58.346 66.1417 58.5335 67.3364 57.6527 68.457C56.8983 69.3089 56.0884 70.11 55.2284 70.8552C55.1848 69.6735 55.9304 68.8189 56.3446 67.7593C56.6891 66.8742 56.9551 65.9324 57.2516 64.9688Z" fill="url(#paint13_linear_1_21)"/>
<path d="M14.0107 65.043C13.954 67.1446 14.3596 68.0429 15.4889 70.0355C12.9119 69.2856 12.1794 67.0182 14.0107 65.043Z" fill="url(#paint14_linear_1_21)"/>
<path d="M17.6345 66.0635C16.1389 67.1492 15.9383 68.5271 16.2828 70.2014L17.7217 71.4441C17.5439 71.0896 17.455 70.6972 17.4626 70.3007C17.4702 69.9042 17.574 69.5155 17.7653 69.168C18.2406 69.5387 19.0734 71.3482 19.4484 71.6578C18.9556 69.6695 18.6984 67.7248 17.6345 66.0635Z" fill="url(#paint15_linear_1_21)"/>
<defs>
<linearGradient id="paint0_linear_1_21" x1="10.4221" y1="25.1019" x2="59.916" y2="17.262" gradientUnits="userSpaceOnUse">
<stop stop-color="#95A5A5"/>
<stop offset="0.52" stop-color="#E6E7E8"/>
<stop offset="1" stop-color="#95A5A5"/>
</linearGradient>
<linearGradient id="paint1_linear_1_21" x1="10.1916" y1="47.7062" x2="61.0023" y2="39.6571" gradientUnits="userSpaceOnUse">
<stop stop-color="#D3D3D3"/>
<stop offset="0.52" stop-color="#F7F7F7"/>
<stop offset="1" stop-color="#D3D3D3"/>
</linearGradient>
<linearGradient id="paint2_linear_1_21" x1="13.4347" y1="19.3554" x2="56.3271" y2="12.562" gradientUnits="userSpaceOnUse">
<stop stop-color="#D6D6D6"/>
<stop offset="0.52" stop-color="#EDEDED"/>
<stop offset="1" stop-color="#D6D6D6"/>
</linearGradient>
<linearGradient id="paint3_linear_1_21" x1="44.6558" y1="10.1967" x2="48.6918" y2="9.97852" gradientUnits="userSpaceOnUse">
<stop stop-color="#464849"/>
<stop offset="0.52" stop-color="#A7B3B4"/>
<stop offset="1" stop-color="#494C4C"/>
</linearGradient>
<linearGradient id="paint4_linear_1_21" x1="44.549" y1="12.187" x2="48.0613" y2="11.2985" gradientUnits="userSpaceOnUse">
<stop stop-color="#DFDFDF"/>
<stop offset="0.52" stop-color="#DDDDDD"/>
<stop offset="1" stop-color="#DFDFDF"/>
</linearGradient>
<linearGradient id="paint5_linear_1_21" x1="44.4469" y1="10.7493" x2="48.6713" y2="10.1821" gradientUnits="userSpaceOnUse">
<stop offset="0.01" stop-color="#DDDDDD"/>
<stop offset="0.52" stop-color="#E2E2E2"/>
<stop offset="1" stop-color="#DCDCDC"/>
</linearGradient>
<linearGradient id="paint6_linear_1_21" x1="13.5229" y1="74.7184" x2="58.2118" y2="74.7184" gradientUnits="userSpaceOnUse">
<stop stop-color="#E57E25"/>
<stop offset="1" stop-color="#C03A2B"/>
</linearGradient>
<linearGradient id="paint7_linear_1_21" x1="437.521" y1="1007.5" x2="505.022" y2="1007.5" gradientUnits="userSpaceOnUse">
<stop stop-color="#E57E25"/>
<stop offset="1" stop-color="#C03A2B"/>
</linearGradient>
<linearGradient id="paint8_linear_1_21" x1="493.748" y1="1018.78" x2="552.192" y2="1018.78" gradientUnits="userSpaceOnUse">
<stop stop-color="#E57E25"/>
<stop offset="1" stop-color="#C03A2B"/>
</linearGradient>
<linearGradient id="paint9_linear_1_21" x1="317.221" y1="990.64" x2="371.959" y2="990.64" gradientUnits="userSpaceOnUse">
<stop stop-color="#E57E25"/>
<stop offset="1" stop-color="#C03A2B"/>
</linearGradient>
<linearGradient id="paint10_linear_1_21" x1="525.493" y1="1032.45" x2="574.052" y2="1032.45" gradientUnits="userSpaceOnUse">
<stop stop-color="#E57E25"/>
<stop offset="1" stop-color="#C03A2B"/>
</linearGradient>
<linearGradient id="paint11_linear_1_21" x1="196.718" y1="1058.06" x2="227.783" y2="1058.06" gradientUnits="userSpaceOnUse">
<stop stop-color="#E57E25"/>
<stop offset="1" stop-color="#C03A2B"/>
</linearGradient>
<linearGradient id="paint12_linear_1_21" x1="523.071" y1="1081.99" x2="560.338" y2="1081.99" gradientUnits="userSpaceOnUse">
<stop stop-color="#E57E25"/>
<stop offset="1" stop-color="#C03A2B"/>
</linearGradient>
<linearGradient id="paint13_linear_1_21" x1="432.983" y1="981.897" x2="453.385" y2="981.897" gradientUnits="userSpaceOnUse">
<stop stop-color="#E57E25"/>
<stop offset="1" stop-color="#C03A2B"/>
</linearGradient>
<linearGradient id="paint14_linear_1_21" x1="87.3123" y1="838.39" x2="101.582" y2="838.39" gradientUnits="userSpaceOnUse">
<stop stop-color="#E57E25"/>
<stop offset="1" stop-color="#C03A2B"/>
</linearGradient>
<linearGradient id="paint15_linear_1_21" x1="138.632" y1="949.401" x2="163.76" y2="949.401" gradientUnits="userSpaceOnUse">
<stop stop-color="#E57E25"/>
<stop offset="1" stop-color="#C03A2B"/>
</linearGradient>
</defs>
</svg>
